<?xml version="1.0" standalone="no"?>
<!DOCTYPE svg PUBLIC "-//W3C//DTD SVG 1.1//EN" "http://www.w3.org/Graphics/SVG/1.1/DTD/svg11.dtd" >
<svg xmlns="http://www.w3.org/2000/svg">
<metadata>
This is a custom SVG webfont generated by Font Squirrel.
</metadata>
<defs>
<font id="webfontD4NfqXai" horiz-adv-x="778" >
<font-face units-per-em="1000" ascent="750" descent="-250" />
<missing-glyph horiz-adv-x="305" />
<glyph unicode=" "  horiz-adv-x="305" />
<glyph unicode="&#x09;" horiz-adv-x="305" />
<glyph unicode="&#xa0;" horiz-adv-x="305" />
<glyph unicode="!" horiz-adv-x="333" d="M188 184h-52l-37 347q0 4 -3.5 31t-3.5 41q0 36 18 58t52 22q40 0 59 -22t19 -58q0 -18 -7 -72zM92 59q0 31 21 52.5t53 21.5t53 -21.5t21 -52.5t-21 -52.5t-53 -21.5t-53 21.5t-21 52.5z" />
<glyph unicode="&#x22;" horiz-adv-x="333" d="M126 602l-18 -204q-3 -31 -22 -31t-22 31l-18 204q-1 10 -1 20q0 61 41 61t41 -61q0 -10 -1 -20zM287 602l-18 -204q-3 -31 -22 -31t-22 31l-18 204q-1 10 -1 20q0 61 41 61t41 -61q0 -10 -1 -20z" />
<glyph unicode="#" horiz-adv-x="611" d="M493 243v-58h-87l-26 -185h-62l26 185h-103l-26 -185h-62l26 185h-86v58h94l17 119h-85v58h93l26 185h62l-26 -185h102l26 185h62l-26 -185h80v-58h-88l-16 -119h79zM368 362h-102l-17 -119h103z" />
<glyph unicode="$" horiz-adv-x="611" d="M264 381v177q-41 -3 -72 -29t-31 -66q0 -67 103 -82zM338 225v-178q49 2 87.5 24.5t38.5 66.5q0 30 -24.5 50t-101.5 37zM264 47v194q-47 11 -79 22t-67.5 32t-53.5 54.5t-18 78.5q0 87 65 138.5t153 53.5v91h74v-91q76 -2 142.5 -43t66.5 -113q0 -32 -20.5 -53.5 t-53.5 -21.5q-29 0 -50.5 14t-21.5 42q0 63 68 63h4q-46 46 -135 50v-193q49 -9 87 -22t75.5 -35t58 -56.5t20.5 -79.5q0 -95 -71 -141t-170 -46v-111h-74v111q-95 0 -164 40t-69 111q0 39 20 64.5t59 25.5q37 0 56.5 -23t19.5 -43q0 -58 -59 -58q-8 0 -17 1q35 -56 154 -56 z" />
<glyph unicode="%" horiz-adv-x="833" d="M203 620q83 0 123 -49t40 -139t-40 -139t-123 -49t-123 49t-40 139t40 139t123 49zM203 565q-56 0 -56 -133t56 -133t56 133t-56 133zM240 -15h-60l414 635h60zM630 361q83 0 123 -49t40 -139t-40 -139t-123 -49t-123 49t-40 139t40 139t123 49zM630 306q-56 0 -56 -133 t56 -133t56 133t-56 133z" />
<glyph unicode="&#x26;" horiz-adv-x="833" d="M324 446q35 14 60.5 40t25.5 59q0 28 -16 44t-45 16t-45.5 -18t-16.5 -48q0 -34 37 -93zM486 338v74h320v-74h-22q-42 0 -63.5 -8.5t-35.5 -28.5l-129 -182q32 -38 75 -38q100 0 100 145h76q0 -57 -7.5 -98t-28 -76.5t-60 -53.5t-98.5 -18q-90 0 -157 52 q-95 -52 -187 -52q-114 0 -172 56.5t-58 139.5q0 79 33 120.5t137 97.5q-13 16 -21 50t-8 64q0 80 48 127.5t130 47.5q60 0 101 -37.5t41 -96.5q0 -103 -129 -177q15 -36 59 -99.5t72 -88.5q22 22 48.5 60.5t26.5 57.5t-11.5 27.5t-39.5 8.5h-40zM179 204q0 -55 33 -92.5 t83 -37.5q57 0 98 23q-66 79 -146 217q-68 -45 -68 -110z" />
<glyph unicode="'" horiz-adv-x="222" d="M151 602l-18 -204q-3 -31 -22 -31t-22 31l-18 204q-1 10 -1 20q0 61 41 61t41 -61q0 -9 -1 -20z" />
<glyph unicode="(" horiz-adv-x="389" d="M354 683v-62q-55 -17 -92.5 -61t-54 -103t-23 -108.5t-6.5 -102.5t6.5 -102.5t23 -108.5t54 -103t92.5 -61v-62q-79 11 -140.5 53.5t-97.5 105t-54 133.5t-18 145t18 145t54 133.5t97.5 105t140.5 53.5z" />
<glyph unicode=")" horiz-adv-x="389" d="M35 -191v62q55 17 92.5 61t54 103t23 108.5t6.5 102.5t-6.5 102.5t-23 108.5t-54 103t-92.5 61v62q79 -11 140.5 -53.5t97.5 -105t54 -133.5t18 -145t-18 -145t-54 -133.5t-97.5 -105t-140.5 -53.5z" />
<glyph unicode="*" horiz-adv-x="500" d="M250 683q17 0 32.5 -9t15.5 -26q0 -20 -18.5 -68t-20.5 -79q13 7 55.5 58t67.5 51q20 0 33 -14.5t13 -35.5q0 -39 -39 -44q-89 -11 -123 -30q52 -27 124 -30q15 -1 27.5 -11.5t12.5 -31.5q0 -20 -12 -34t-32 -14q-18 0 -36.5 18t-43 46t-45.5 42q-1 -4 -1 -10 q0 -23 17 -65q21 -53 21 -63q0 -46 -45 -46q-47 0 -47 38q0 17 14 58t20 89q-27 -19 -50 -47.5t-38 -45t-32 -16.5q-22 0 -35.5 14.5t-13.5 36.5q0 23 21 35t47 14t54 7.5t39 17.5q-13 10 -42.5 14t-54.5 5.5t-45 14t-20 37.5q0 19 12.5 33.5t31.5 14.5q22 0 39 -16.5 t39 -44t46 -43.5q1 32 -15 77.5t-16 59.5q0 43 43 43z" />
<glyph unicode="+" horiz-adv-x="600" d="M259 275v193h82v-193h193v-82h-193v-193h-82v193h-193v82h193z" />
<glyph unicode="," horiz-adv-x="305" d="M75 -141v42q102 29 99 112h-2q-8 -16 -46 -16q-24 0 -42 17.5t-18 44.5q0 31 21 52.5t53 21.5q42 0 70 -33.5t28 -77.5q0 -65 -47.5 -108t-115.5 -55z" />
<glyph unicode="-" horiz-adv-x="333" d="M296 182h-259v104h259v-104z" />
<glyph unicode="." horiz-adv-x="305" d="M79 59q0 31 21.5 52.5t52.5 21.5t52.5 -21.5t21.5 -52.5t-21.5 -52.5t-52.5 -21.5t-52.5 21.5t-21.5 52.5z" />
<glyph unicode="/" horiz-adv-x="278" d="M-15 -20l228 703h80l-228 -703h-80z" />
<glyph unicode="0" horiz-adv-x="611" d="M175 302q0 -124 35 -183t96 -59t96 59t35 183t-35 183.5t-96 59.5t-96 -59.5t-35 -183.5zM25 302q0 137 74 227.5t207 90.5t207 -90.5t74 -227.5t-74 -227t-207 -90t-207 90t-74 227z" />
<glyph unicode="1" horiz-adv-x="611" d="M503 0h-375v66h55q70 0 70 40v341h-128v68q67 3 106.5 21t67.5 69h83v-499q0 -40 70 -40h51v-66z" />
<glyph unicode="2" horiz-adv-x="611" d="M101 -6h-54v44q0 54 19 95.5t50 67.5t68 47t74.5 38t68.5 36t50 46.5t19 63.5q0 58 -38.5 89t-95.5 31q-102 0 -132 -77q19 4 40 4q29 0 48 -21t19 -46q0 -35 -22.5 -57t-66.5 -22q-40 0 -64.5 28.5t-24.5 76.5q0 79 65.5 130.5t182.5 51.5q101 0 170 -55.5t69 -132.5 q0 -54 -20.5 -92t-53.5 -58.5t-74 -34t-84 -23.5t-80.5 -22.5t-66.5 -36.5t-39 -59l2 -2q30 28 72 28q14 0 102 -16t133 -16q65 0 68 113h56v-21q0 -207 -158 -207q-56 0 -138 38q-82 37 -111 37q-19 0 -31 -11t-15.5 -22.5t-6.5 -32.5z" />
<glyph unicode="3" horiz-adv-x="611" d="M243 284v70q33 0 57 3t49.5 12.5t39 30t13.5 52.5q0 53 -38 78.5t-94 25.5q-69 0 -111 -36l2 -2h6q25 0 41 -16q18 -19 18 -51q0 -28 -23 -48t-61 -20q-36 0 -57 22t-21 59q0 41 24.5 73t63.5 49t79 25.5t78 8.5q37 0 75.5 -8.5t75 -25.5t59.5 -48.5t23 -73.5 q0 -117 -153 -142v-2q43 -9 68 -17.5t52 -25.5t39.5 -45t12.5 -69q0 -51 -24.5 -87.5t-66 -55.5t-85.5 -27t-92 -8q-44 0 -84.5 7.5t-79.5 25t-62.5 52t-23.5 81.5q0 39 25 65t64 26q32 0 57 -20t25 -51q0 -34 -19.5 -54.5t-44.5 -20.5q-14 0 -23 3l-2 -2q33 -48 130 -48 q67 0 111.5 27.5t44.5 92.5q0 115 -157 115h-11z" />
<glyph unicode="4" horiz-adv-x="611" d="M324 469l-194 -221h194v221zM324 166h-303v72l331 367h97v-357h116v-82h-116v-60q0 -22 9.5 -31t30.5 -9h76v-66h-357v66h76q21 0 30.5 9t9.5 31v60z" />
<glyph unicode="5" horiz-adv-x="611" d="M139 294h-67l29 326q102 -33 212 -33t212 33q-36 -143 -240 -143q-58 0 -119 11l-11 -100q67 39 160 39q106 0 173.5 -61.5t67.5 -164.5q0 -109 -79 -162.5t-192 -53.5q-55 0 -106 15.5t-90 54.5t-39 95q0 38 21 62.5t58 24.5t60.5 -20.5t23.5 -57.5q0 -33 -23 -50 q-20 -15 -48 -15h-7q11 -22 49.5 -33.5t71.5 -11.5q82 0 116 37t34 115q0 152 -150 152q-68 0 -117 -59z" />
<glyph unicode="6" horiz-adv-x="611" d="M309 299q-49 0 -79 -32t-30 -90t30 -90t79 -32t79 32t30 90t-30 90t-79 32zM568 193q0 -98 -72.5 -153t-176.5 -55q-124 0 -196.5 80.5t-72.5 204.5q0 90 28 167t93 130t157 53q30 0 64 -7.5t67.5 -22.5t55 -41.5t21.5 -60.5q0 -33 -21 -57t-54 -24q-31 0 -54.5 17 t-23.5 47q0 44 46 59v6q-46 22 -84 22q-37 0 -64.5 -15t-43 -37.5t-25 -56t-12.5 -61.5t-4 -64q66 55 145 55q91 0 159 -49t68 -137z" />
<glyph unicode="7" horiz-adv-x="611" d="M131 329h-70v276h71v-71h2q28 37 56 56.5t68 19.5q51 0 121 -24t95 -24q33 0 45 43h58q0 -50 -22 -95.5t-53.5 -86t-63 -87t-53.5 -121t-22 -167.5v-48h-140v61q0 65 10.5 113.5t36 89t49 67.5t69 74.5t76.5 84.5l-2 2q-42 -21 -99 -21q-26 0 -73 9q-44 8 -73 8 q-86 0 -86 -134v-25z" />
<glyph unicode="8" horiz-adv-x="611" d="M184 468q0 -78 189 -108q21 12 33.5 22t24 31t11.5 48q0 32 -25.5 54t-56.5 30.5t-62 8.5q-46 0 -80 -21t-34 -65zM38 142q0 98 124 147q-48 29 -74 62.5t-26 82.5q0 52 23 90t62.5 58t82.5 29t93 9q48 0 97 -15t87.5 -52t38.5 -87q0 -84 -106 -129q56 -22 95 -66 t39 -100q0 -63 -42 -107t-99 -61.5t-120 -17.5q-42 0 -85.5 7.5t-88 24t-73 49t-28.5 76.5zM151 162q0 -51 47 -76.5t104 -25.5q25 0 48.5 3.5t48 12t39 27t14.5 43.5q0 19 -17 36.5t-46.5 30t-55 21t-56 16.5t-37.5 10q-18 -6 -31.5 -12.5t-28 -17.5t-22 -28.5t-7.5 -39.5z " />
<glyph unicode="9" horiz-adv-x="611" d="M303 306q49 0 79 32t30 90t-30 90t-79 32t-79 -32t-30 -90t30 -90t79 -32zM562 335q0 -90 -28 -167t-93 -130t-157 -53q-30 0 -64 7.5t-67.5 22.5t-55 41.5t-21.5 60.5q0 33 21 57t54 24q31 0 54.5 -17t23.5 -47q0 -44 -46 -59v-6q46 -22 84 -22q37 0 64.5 15t43 37.5 t25 56t12.5 61.5t4 64q-66 -55 -145 -55q-91 0 -159 49t-68 137q0 98 72.5 153t176.5 55q124 0 196.5 -80.5t72.5 -204.5z" />
<glyph unicode=":" horiz-adv-x="305" d="M79 59q0 31 21.5 52.5t52.5 21.5t52.5 -21.5t21.5 -52.5t-21.5 -52.5t-52.5 -21.5t-52.5 21.5t-21.5 52.5zM79 375q0 31 21.5 52.5t52.5 21.5t52.5 -21.5t21.5 -52.5t-21.5 -52.5t-52.5 -21.5t-52.5 21.5t-21.5 52.5z" />
<glyph unicode=";" horiz-adv-x="305" d="M75 -141v42q102 29 99 112h-2q-8 -16 -46 -16q-24 0 -42 17.5t-18 44.5q0 31 21 52.5t53 21.5q42 0 70 -33.5t28 -77.5q0 -65 -47.5 -108t-115.5 -55zM79 375q0 31 21.5 52.5t52.5 21.5t52.5 -21.5t21.5 -52.5t-21.5 -52.5t-52.5 -21.5t-52.5 21.5t-21.5 52.5z" />
<glyph unicode="&#x3c;" horiz-adv-x="600" d="M554 61v-88l-508 223v76l508 223v-88l-394 -173z" />
<glyph unicode="=" horiz-adv-x="600" d="M534 369v-82h-468v82h468zM534 181v-82h-468v82h468z" />
<glyph unicode="&#x3e;" horiz-adv-x="600" d="M46 61l394 173l-394 173v88l508 -223v-76l-508 -223v88z" />
<glyph unicode="?" horiz-adv-x="500" d="M258 185h-64v59q0 28 14.5 55t35.5 49l41 44q21 23 35.5 52t14.5 60q0 49 -37.5 77t-83.5 28q-119 0 -130 -115q26 24 56 24q26 0 46 -18.5t20 -49.5q0 -30 -21 -50.5t-57 -20.5q-48 0 -76.5 33.5t-28.5 82.5q0 86 65 137t154 51q91 0 163 -47t72 -134q0 -33 -12 -60.5 t-31.5 -47t-42.5 -37t-46.5 -33.5t-43 -32.5t-31.5 -38.5t-12 -47v-21zM150 59q0 31 21 52.5t53 21.5t53 -21.5t21 -52.5t-21 -52.5t-53 -21.5t-53 21.5t-21 52.5z" />
<glyph unicode="@" horiz-adv-x="800" d="M336 275q0 -42 16 -63t41 -21q36 0 64.5 43.5t40 89.5t11.5 75q0 65 -42 65t-86.5 -55t-44.5 -134zM528 463l10 36h76l-65 -251q-2 -10 -2 -20q0 -12 3 -25q6 -23 32 -23q48 0 84 66t36 135q0 44 -20 88t-55.5 80t-91 59t-119.5 23q-113 0 -195.5 -84t-82.5 -243 q0 -110 84.5 -189.5t203.5 -79.5q107 0 208 49l12 -45q-124 -60 -219 -60q-98 0 -176.5 33t-124 84.5t-69.5 108t-24 110.5q0 161 112 264t271 103q146 0 245.5 -86t99.5 -214q0 -55 -22 -109.5t-68 -94t-105 -39.5q-46 0 -71 27.5t-24 45.5h-2q-11 -19 -45 -44t-75 -28h-2 q-35 0 -67 27q-32 28 -32 98q0 32 13 73t37 81t65.5 67t91.5 27q9 0 17 -1l13 -3q5 -1 11 -5.5t8.5 -6t7.5 -7.5l5 -8q1 -2 6 -10t5 -9z" />
<glyph unicode="A" d="M331 0h-312v74q44 0 68.5 10.5t36.5 43.5l191 535h140l200 -535q13 -33 37 -43.5t68 -10.5v-74h-348v74h79q31 0 31 15q0 12 -4 24l-33 100h-227l-33 -100q-4 -12 -4 -21q0 -18 32 -18h78v-74zM287 287h169l-87 241h-2z" />
<glyph unicode="B" horiz-adv-x="722" d="M276 589v-208h96q69 0 105.5 20.5t36.5 81.5q0 63 -36.5 84.5t-105.5 21.5h-96zM24 0v74h71q23 0 32 8t9 28v443q0 20 -9 28t-32 8h-71v74h371q141 0 200 -41.5t59 -122.5q0 -63 -38 -99.5t-102 -46.5v-2q35 -8 61 -18.5t51 -29t38 -48.5t13 -71q0 -184 -224 -184h-429z M276 307v-233h112q71 0 110 23.5t39 92.5t-39.5 93t-109.5 24h-112z" />
<glyph unicode="C" horiz-adv-x="667" d="M539 610l19 63h71v-274h-74q-11 89 -57.5 143.5t-131.5 54.5q-53 0 -90.5 -22.5t-57 -62t-28 -83.5t-8.5 -97q0 -52 9 -96.5t28.5 -84t57 -62.5t89.5 -23q82 0 126.5 50.5t53.5 135.5h86q-9 -131 -82.5 -201.5t-204.5 -70.5q-154 0 -237 98.5t-83 262.5q0 146 90 244 t242 98q48 0 98 -20.5t84 -52.5z" />
<glyph unicode="D" d="M266 589v-515h123q206 0 206 258q0 138 -54 197.5t-142 59.5h-133zM19 0v74h64q43 0 43 34v447q0 34 -43 34h-64v74h399q154 0 244 -85t90 -246t-90 -246.5t-244 -85.5h-399z" />
<glyph unicode="E" horiz-adv-x="722" d="M679 0h-660v74h56q28 0 40.5 14t12.5 56v389q0 33 -13 44.5t-51 11.5h-45v74h660v-264h-74q-4 40 -7.5 62t-11 47t-17.5 37.5t-27 24t-40.5 15.5t-57.5 4h-176v-208h53q46 0 66.5 25.5t20.5 85.5v13h74v-334h-74v24q0 60 -20.5 86t-66.5 26h-53v-233h200q69 0 99.5 47 t37.5 159h74v-280z" />
<glyph unicode="F" horiz-adv-x="667" d="M377 0h-366v74h62q51 0 51 50v428q0 37 -47 37h-66v74h631v-273h-74q-15 122 -52.5 160.5t-139.5 38.5h-112v-208h47q83 0 83 98v26h74v-334h-74v38q0 53 -21 75.5t-68 22.5h-41v-181q0 -28 14 -40t49 -12h50v-74z" />
<glyph unicode="G" d="M542 608l25 55h74v-257h-77q-11 40 -26 71t-39 60t-60.5 44.5t-83.5 15.5q-80 0 -127 -75t-47 -190q0 -266 191 -266q73 0 110.5 34.5t37.5 93.5v38q0 24 -15.5 36t-37.5 12h-64v74h361v-74h-51q-32 0 -42.5 -10t-10.5 -40v-230h-72l-37 51q-85 -71 -208 -71 q-145 0 -232 95.5t-87 256.5q0 154 87 252.5t232 98.5q109 0 199 -75z" />
<glyph unicode="H" horiz-adv-x="833" d="M387 0h-364v74h66q23 0 32 8t9 28v443q0 20 -9 28t-32 8h-66v74h364v-74h-76q-23 0 -32 -8t-9 -28v-177h293v177q0 20 -9 28t-32 8h-76v74h364v-74h-66q-23 0 -32 -8t-9 -28v-443q0 -20 9 -28t32 -8h66v-74h-364v74h76q23 0 32 8t9 28v192h-293v-192q0 -20 9 -28t32 -8 h76v-74z" />
<glyph unicode="I" horiz-adv-x="389" d="M372 0h-354v74h50q31 0 44 8.5t13 27.5v434q0 45 -51 45h-56v74h354v-74h-44q-63 0 -63 -48v-418q0 -49 49 -49h58v-74z" />
<glyph unicode="J" horiz-adv-x="556" d="M540 589h-71q-23 0 -32 -8t-9 -28v-411q0 -76 -58 -119t-147 -43q-50 0 -98 14t-85.5 50.5t-37.5 88.5q0 47 23.5 77.5t69.5 30.5q30 0 54.5 -22.5t24.5 -52.5q0 -37 -19.5 -58.5t-55.5 -22.5q32 -31 94 -31q42 0 68.5 19.5t26.5 57.5v422q0 20 -9 28t-32 8h-66v74h359 v-74z" />
<glyph unicode="K" horiz-adv-x="833" d="M433 0v74h67q30 0 30 18q0 10 -9 23l-142 206l-105 -90v-121q0 -20 9 -28t32 -8h59v-74h-352v74h53q33 0 46 13.5t13 40.5v425q0 20 -9 28t-32 8h-71v74h352v-74h-59q-23 0 -32 -8t-9 -28v-205l215 196q23 20 23 32q0 13 -18 13h-63v74h351v-74h-37q-42 0 -69 -12 t-61 -42l-141 -123l213 -293q33 -45 76 -45h52v-74h-382z" />
<glyph unicode="L" horiz-adv-x="667" d="M646 0h-625v74h64q47 0 47 44v428q0 23 -12 33t-41 10h-58v74h366v-74h-56q-33 0 -46 -9.5t-13 -35.5v-471h163q75 0 102.5 45.5t34.5 166.5h74v-285z" />
<glyph unicode="M" horiz-adv-x="944" d="M226 563v-455q0 -17 13.5 -25.5t31.5 -8.5h62v-74h-313v74h59q24 0 33.5 8t9.5 26v447q0 34 -39 34h-63v74h314l135 -433h2l152 433h302v-74h-67q-39 0 -39 -34v-433q0 -48 43 -48h63v-74h-347v74h66q20 0 31.5 9.5t11.5 24.5v455h-2l-191 -563h-83l-183 563h-2z" />
<glyph unicode="N" horiz-adv-x="833" d="M563 0l-327 537h-2v-423q0 -18 11 -29t30 -11h75v-74h-331v74h70q41 0 41 40v439q0 20 -9 28t-32 8h-70v74h295l291 -477h2v356q0 47 -52 47h-61v74h326v-74h-59q-50 0 -50 -35v-554h-148z" />
<glyph unicode="O" d="M389 683q161 0 261 -100.5t100 -251.5t-100 -251t-261 -100t-261 100t-100 251t100 251.5t261 100.5zM389 605q-57 0 -98 -22t-63.5 -62t-32.5 -86.5t-10 -103.5q0 -78 17 -135.5t65 -97.5t125 -40q201 0 201 273q0 274 -204 274z" />
<glyph unicode="P" horiz-adv-x="667" d="M268 589v-215h91q73 0 108.5 25t35.5 81q0 58 -33 83.5t-111 25.5h-91zM380 0h-359v74h64q43 0 43 34v447q0 34 -43 34h-64v74h392q112 0 174 -48.5t62 -133.5q0 -90 -60 -135.5t-164 -45.5h-157v-192q0 -34 48 -34h64v-74z" />
<glyph unicode="Q" horiz-adv-x="833" d="M504 76l-20 42q-30 62 -84 62q-31 0 -53 -17t-22 -43q0 -62 83 -62q60 0 96 18zM777 137h64q0 -39 -2 -64t-10 -54t-22 -46t-40.5 -28t-63.5 -11q-49 0 -79 17t-63 55q-66 -26 -146 -26q-161 0 -261 100t-100 251t100 251.5t261 100.5t261 -100.5t100 -251.5 q0 -156 -106 -256q24 -39 66 -39q22 0 31.5 22.5t9.5 78.5zM415 605q-57 0 -98 -22t-63.5 -62t-32.5 -86.5t-10 -103.5q0 -128 50 -200q13 135 139 135q61 0 101 -24.5t88 -76.5q30 64 30 166q0 274 -204 274z" />
<glyph unicode="R" d="M391 0h-365v74h70q23 0 32 8t9 28v443q0 20 -9 28t-32 8h-70v74h435q213 0 213 -166q0 -73 -53 -114t-135 -48v-2q75 -9 102 -41.5t27 -95.5q0 -122 41 -122q18 0 26 18t8 62v31h66v-31q0 -174 -138 -174q-70 0 -99.5 35t-29.5 101q0 118 -31.5 156.5t-121.5 38.5h-59 v-201q0 -20 9 -28t32 -8h73v-74zM277 591v-206h118q78 0 108.5 25.5t30.5 83.5q0 97 -129 97h-128z" />
<glyph unicode="S" horiz-adv-x="611" d="M467 613l33 50h58v-252h-72q-19 87 -70 137t-136 50q-70 0 -100.5 -20.5t-30.5 -69.5q0 -30 24.5 -49.5t64 -30.5t87 -20t95 -23t87 -35t64 -61.5t24.5 -97.5q0 -111 -73.5 -161t-190.5 -50q-111 0 -208 79l-22 -59h-68v271h74q11 -101 71.5 -153.5t166.5 -52.5 q63 0 96.5 25.5t33.5 63.5q0 34 -24.5 56.5t-64 33.5t-87 20.5t-95 23t-87 34t-64 61.5t-24.5 99q0 67 37.5 114t92 67t118.5 20q90 0 190 -70z" />
<glyph unicode="T" horiz-adv-x="667" d="M24 663h620v-273h-74v45q0 79 -41 116.5t-125 37.5v-479q0 -20 9 -28t32 -8h76v-74h-374v74h76q23 0 32 8t9 28v479q-84 0 -125 -37.5t-41 -116.5v-45h-74v273z" />
<glyph unicode="U" d="M20 589v74h356v-74h-46q-36 0 -48.5 -9t-12.5 -30v-370q0 -52 36 -79t101 -27q142 0 142 136v324q0 30 -13 42.5t-47 12.5h-47v74h318v-74h-55q-31 0 -41.5 -11.5t-10.5 -43.5v-332q0 -63 -22 -108.5t-60.5 -69t-82 -34t-95.5 -10.5t-96.5 10t-83 32t-61 62.5t-22.5 95.5 v368q0 41 -67 41h-42z" />
<glyph unicode="V" d="M760 663v-74h-23q-36 0 -54.5 -13t-31.5 -49l-196 -527h-137l-196 536q-11 33 -27.5 43t-47.5 10h-28v74h354v-74h-62q-43 0 -43 -23q0 -15 10 -41l124 -364h2l135 364q10 28 10 39q0 25 -48 25h-61v74h320z" />
<glyph unicode="W" horiz-adv-x="1000" d="M984 663v-74q-40 0 -57.5 -10.5t-27.5 -45.5l-157 -533h-131l-105 344h-2l-116 -344h-133l-164 559q-5 16 -19.5 23t-52.5 7v74h289v-74h-42q-31 0 -31 -26q0 -2 9 -36l97 -360h2l116 338l-17 47q-13 37 -50 37h-33v74h299v-74h-44q-37 0 -37 -20q0 -7 8 -34l107 -361h2 l100 354q6 18 6 33q0 28 -47 28h-44v74h275z" />
<glyph unicode="X" horiz-adv-x="833" d="M368 0h-349v74h42q34 0 56 25l219 234l-183 227q-14 17 -29.5 23t-42.5 6h-37v74h359v-74h-28q-42 0 -42 -23q0 -12 9 -24l85 -104l94 97q23 23 23 38q0 16 -37 16h-46v74h322v-74h-31q-44 0 -77 -35l-183 -199l204 -248q26 -33 70 -33h49v-74h-389v74h37q56 0 56 23 q0 11 -16 30l-103 130l-111 -129q-14 -16 -14 -31q0 -23 56 -23h37v-74z" />
<glyph unicode="Y" d="M24 663h354v-74h-72q-24 0 -24 -23q0 -12 9 -24l114 -168l124 168q9 12 9 24q0 23 -24 23h-74v74h317v-74h-17q-54 0 -77 -33l-209 -284v-157q0 -41 40 -41h85v-74h-389v74h83q23 0 32 8t9 28v168l-197 276q-24 35 -77 35h-16v74z" />
<glyph unicode="Z" horiz-adv-x="611" d="M21 0v80l398 509h-140q-48 0 -74.5 -6t-48.5 -26.5t-31 -61.5t-10 -110h-74v278h540v-80l-397 -509h121q62 0 95.5 6.5t59.5 30t35.5 66.5t12.5 120h74v-297h-561z" />
<glyph unicode="[" horiz-adv-x="389" d="M352 -174h-250v837h250v-66h-125v-705h125v-66z" />
<glyph unicode="\" horiz-adv-x="278" d="M65 683l228 -703h-80l-228 703h80z" />
<glyph unicode="]" horiz-adv-x="389" d="M287 -174h-250v66h125v705h-125v66h250v-837z" />
<glyph unicode="^" horiz-adv-x="600" d="M171 240h-89l178 365h80l178 -365h-89l-129 272z" />
<glyph unicode="_" horiz-adv-x="500" d="M0 -75h500v-50h-500v50z" />
<glyph unicode="`" horiz-adv-x="333" d="M247 537h-59l-146 91q-19 12 -26.5 22t-7.5 31q0 16 14 28.5t30 12.5q12 0 23 -4t23 -14t17.5 -16t18.5 -21.5t16 -18.5z" />
<glyph unicode="a" horiz-adv-x="556" d="M492 174h64v-30q0 -159 -129 -159q-40 0 -67.5 18t-33.5 56q-49 -74 -164 -74q-62 0 -100.5 31.5t-38.5 95.5q0 54 31 85.5t75 43.5t88 21.5t75 30.5t31 60q0 76 -107 76q-25 0 -53 -8.5t-40 -24.5q7 1 13 1q20 0 34 -10q19 -13 19 -43q0 -59 -70 -59q-32 0 -52 21.5 t-20 52.5q0 36 19.5 62t52 38.5t64 18t65.5 5.5q97 0 145 -39.5t48 -105.5v-245q0 -33 24 -33q27 0 27 76v38zM323 182v65l-106 -48q-19 -8 -29.5 -15t-20.5 -23t-10 -38q0 -63 60 -63q49 0 77.5 35.5t28.5 86.5z" />
<glyph unicode="b" horiz-adv-x="556" d="M377 234q0 94 -22 132.5t-81 38.5q-103 0 -103 -171q0 -94 22 -132.5t81 -38.5q103 0 103 171zM172 663v-257h2q54 77 133 77q102 0 153 -70t51 -167q0 -126 -53 -193.5t-155 -67.5q-47 0 -81 15t-68 54l-37 -54h-63v557q0 22 -9.5 31t-30.5 9h-39v66h197z" />
<glyph unicode="c" horiz-adv-x="500" d="M392 192h78q-14 -207 -215 -207q-115 0 -175 64.5t-60 185.5q0 108 73 178t174 70q87 0 146.5 -42t59.5 -105q0 -34 -20.5 -58.5t-51.5 -24.5q-30 0 -54 15.5t-24 44.5q0 61 59 65q-30 39 -95 39q-49 0 -80.5 -29t-42 -65.5t-10.5 -79.5q0 -70 29.5 -122t99.5 -52 q44 0 74 34t35 89z" />
<glyph unicode="d" horiz-adv-x="611" d="M387 0v82h-2q-57 -97 -157 -97q-97 0 -147.5 73.5t-50.5 175.5q0 98 54.5 173.5t143.5 75.5q54 0 95 -26t62 -60h2v156q0 23 -9 33.5t-32 10.5h-63v66h222v-553q0 -23 8.5 -33.5t31.5 -10.5h52v-66h-210zM164 234q0 -171 103 -171q53 0 86.5 45t33.5 132q0 79 -33.5 122 t-86.5 43q-103 0 -103 -171z" />
<glyph unicode="e" horiz-adv-x="500" d="M477 222h-320v-14q0 -59 23 -101q27 -47 91 -47q101 0 121 106h83q-21 -181 -215 -181q-116 0 -176.5 63.5t-60.5 185.5q0 110 64.5 179.5t167.5 69.5q59 0 105 -24.5t72 -63.5t38 -84q8 -33 8 -66q0 -12 -1 -23zM157 288h186q1 54 -20 89.5t-70 35.5q-47 0 -70 -35.5 t-26 -89.5z" />
<glyph unicode="f" horiz-adv-x="389" d="M19 402v66h95v26q0 94 46 141.5t127 47.5q53 0 96.5 -30t43.5 -81q0 -31 -17 -50t-47 -19q-28 0 -46.5 16.5t-18.5 41.5q0 23 14.5 37.5t36.5 17.5q-2 2 -2 3q-22 14 -49 14q-66 0 -66 -80v-85h102v-66h-102v-296q0 -22 9.5 -31t30.5 -9h61v-66h-313v66h54q21 0 30.5 9 t9.5 31v296h-95z" />
<glyph unicode="g" horiz-adv-x="667" d="M386 -27h-152q-51 0 -78 -18t-27 -49q0 -62 152 -62q168 0 168 71q0 25 -17.5 41.5t-45.5 16.5zM194 307q0 -120 86 -120q87 0 87 115q0 125 -87 125q-86 0 -86 -120zM230 74h171q164 0 164 -132q0 -154 -281 -154q-257 0 -257 111q0 38 29 58t71 24v2q-43 8 -63.5 28 t-20.5 63q0 39 26.5 66t65.5 29v2q-75 37 -75 135q0 86 64 131.5t154 45.5q106 0 170 -49q37 49 104 49q44 0 72.5 -27.5t28.5 -70.5q0 -71 -64 -71q-26 0 -43.5 13.5t-17.5 39.5q0 47 46 58q1 2 -1.5 5.5t-11 6.5t-21.5 3q-37 0 -67 -44q28 -51 28 -90q0 -89 -64 -132 t-159 -43q-59 0 -106 17q-27 -16 -27 -38q0 -36 85 -36z" />
<glyph unicode="h" horiz-adv-x="667" d="M234 663v-274h2q71 94 174 94q66 0 104 -38t38 -102v-237q0 -22 9.5 -31t30.5 -9h56v-66h-292v66h38q21 0 30.5 9t9.5 31v229q0 70 -88 70q-42 0 -77 -40.5t-35 -102.5v-156q0 -22 9.5 -31t30.5 -9h39v-66h-294v66h57q21 0 30.5 9t9.5 31v451q0 22 -9.5 31t-30.5 9h-57 v66h215z" />
<glyph unicode="i" horiz-adv-x="333" d="M319 0h-293v66h46q21 0 30.5 9t9.5 31v256q0 22 -9.5 31t-30.5 9h-46v66h204v-362q0 -22 9.5 -31t30.5 -9h49v-66zM86 603q0 30 21.5 51t50.5 21t50.5 -21t21.5 -51t-21.5 -51t-50.5 -21t-50.5 21t-21.5 51z" />
<glyph unicode="j" horiz-adv-x="333" d="M251 468v-540q0 -74 -48.5 -107t-121.5 -33q-50 0 -87 27.5t-37 76.5q0 26 19 45t45 19q27 0 45 -16t18 -42q0 -21 -17.5 -35t-38.5 -16q11 -11 31 -11q74 0 74 62v464q0 22 -9.5 31t-30.5 9h-58v66h216zM107 603q0 30 21.5 51t50.5 21t50.5 -21t21.5 -51t-21.5 -51 t-50.5 -21t-50.5 21t-21.5 51z" />
<glyph unicode="k" horiz-adv-x="667" d="M308 0h-284v66h54q21 0 30.5 9t9.5 31v451q0 22 -9.5 31t-30.5 9h-54v66h212v-425l159 129q14 11 14 23t-22 12h-67v66h296v-66q-53 0 -92 -31l-108 -85l133 -181q29 -39 102 -39v-66h-296v66h44q17 0 17 15q0 8 -11 24l-77 109l-92 -72v-36q0 -22 9.5 -31t30.5 -9h32 v-66z" />
<glyph unicode="l" horiz-adv-x="333" d="M317 0h-294v66h49q21 0 30.5 9t9.5 31v451q0 22 -9.5 31t-30.5 9h-49v66h207v-557q0 -22 9.5 -31t30.5 -9h47v-66z" />
<glyph unicode="m" horiz-adv-x="944" d="M239 468v-85h2q31 51 67.5 75.5t91.5 24.5q105 0 133 -95q36 48 74 71.5t92 23.5q59 0 99 -38t40 -103v-236q0 -22 9.5 -31t30.5 -9h53v-66h-280v66h29q21 0 30.5 9t9.5 31v236q0 29 -20.5 46t-50.5 17q-45 0 -78 -35t-33 -84v-180q0 -22 9.5 -31t30.5 -9h27v-66h-255v66 h30q21 0 30.5 9t9.5 31v210q0 44 -14 66.5t-56 22.5q-46 0 -79 -36.5t-33 -82.5v-180q0 -22 9.5 -31t30.5 -9h30v-66h-284v66h56q21 0 30.5 9t9.5 31v256q0 22 -9.5 31t-30.5 9h-56v66h215z" />
<glyph unicode="n" horiz-adv-x="667" d="M234 468v-87h2q67 102 174 102q67 0 104.5 -40.5t37.5 -120.5v-216q0 -22 12.5 -31t47.5 -9h36v-66h-292v66h24q31 0 42.5 9t11.5 31v208q0 52 -23.5 71.5t-64.5 19.5q-38 0 -75 -34.5t-37 -80.5v-184q0 -22 9.5 -31t30.5 -9h39v-66h-294v66h57q21 0 30.5 9t9.5 31v242 q0 32 -12.5 43t-51.5 11h-33v66h215z" />
<glyph unicode="o" horiz-adv-x="556" d="M155 234q0 -183 123 -183t123 183t-123 183t-123 -183zM21 234q0 117 71 183t186 66t186 -66t71 -183t-71 -183t-186 -66t-186 66t-71 183z" />
<glyph unicode="p" horiz-adv-x="611" d="M198 468v-82h2q57 97 157 97q97 0 147.5 -73.5t50.5 -175.5t-50.5 -175.5t-147.5 -73.5q-54 0 -95 26.5t-60 59.5h-3v-173q0 -23 8.5 -33.5t31.5 -10.5h63v-66h-317v66h55q23 0 31.5 10.5t8.5 33.5v460q0 23 -8.5 33.5t-31.5 10.5h-52v66h210zM318 405q-52 0 -84.5 -44 t-32.5 -127t32.5 -127t84.5 -44q45 0 74 45t29 126q0 90 -28.5 130.5t-74.5 40.5z" />
<glyph unicode="q" horiz-adv-x="611" d="M384 386v82h210v-66h-52q-23 0 -31.5 -10.5t-8.5 -33.5v-460q0 -23 8.5 -33.5t31.5 -10.5h55v-66h-317v66h63q23 0 32 10.5t9 33.5v173h-3q-20 -33 -61 -59.5t-95 -26.5q-97 0 -147.5 73.5t-50.5 175.5t50.5 175.5t147.5 73.5q100 0 157 -97h2zM273 405q-112 0 -112 -171 q0 -75 29 -123t85 -48q50 0 79.5 52t29.5 119q0 82 -32 126.5t-79 44.5z" />
<glyph unicode="r" horiz-adv-x="500" d="M234 468v-76h2q32 49 59.5 70t65.5 21q51 0 86 -29t35 -81q0 -35 -20.5 -59.5t-55.5 -24.5q-30 0 -50.5 17t-20.5 47q0 27 19 43t47 17q-13 14 -42 14q-58 0 -91 -47t-33 -107v-167q0 -22 9.5 -31t30.5 -9h63v-66h-316v66h55q21 0 30.5 9t9.5 31v256q0 22 -9.5 31 t-30.5 9h-55v66h212z" />
<glyph unicode="s" horiz-adv-x="500" d="M37 183h73q30 -131 169 -131q30 0 54 16t24 44q0 27 -32.5 43t-78.5 26.5t-92.5 24t-79 45.5t-32.5 82q0 70 55.5 110t127.5 40q74 0 147 -49l20 34h55v-167h-65q-36 110 -148 110q-29 0 -52.5 -13.5t-23.5 -40.5q0 -21 32.5 -35t79 -25.5t92.5 -27.5t78.5 -50.5 t32.5 -85.5q0 -74 -53 -111t-130 -37q-109 0 -167 51l-20 -36h-66v183z" />
<glyph unicode="t" horiz-adv-x="389" d="M105 402h-84v63q37 3 63 19t40.5 44.5t22 57.5t11.5 68h62v-186h132v-66h-129v-295q0 -33 38 -33q23 0 33 13.5t10 43.5v89h66v-84q0 -76 -37.5 -113.5t-99.5 -37.5q-128 0 -128 111v306z" />
<glyph unicode="u" horiz-adv-x="667" d="M647 0h-215v79h-2q-53 -94 -169 -94q-71 0 -109 35.5t-38 104.5v237q0 22 -9.5 31t-30.5 9h-51v66h209v-332q0 -32 20.5 -52.5t56.5 -20.5q58 0 90.5 42.5t32.5 86.5v170q0 40 -49 40h-54v66h221v-362q0 -22 12 -31t45 -9h40v-66z" />
<glyph unicode="v" horiz-adv-x="556" d="M269 468v-66h-34q-10 0 -16.5 -7t-6.5 -17q0 -9 12 -48l71 -222h2l77 222q12 34 12 48q0 10 -6.5 17t-16.5 7h-45v66h222v-66q-32 -2 -47.5 -12.5t-22.5 -31.5l-128 -358h-129l-131 372q-6 17 -18.5 23.5t-46.5 6.5v66h252z" />
<glyph unicode="w" horiz-adv-x="833" d="M816 468v-66q-30 0 -45.5 -9t-23.5 -33l-123 -360h-127l-78 249h-2l-80 -249h-126l-123 371q-10 31 -69 31v66h250v-66h-26q-31 0 -31 -24q0 -3 2 -9.5t6 -18t7 -21.5l63 -221h2l75 225q12 39 12 51q0 7 -11.5 12.5t-28.5 5.5h-24v66h246v-66h-32q-29 0 -29 -23 q0 -9 7 -29l8 -24l63 -218h2l73 223q12 39 12 49q0 8 -7.5 15t-17.5 7h-33v66h209z" />
<glyph unicode="x" horiz-adv-x="667" d="M293 0h-273v66q52 0 79 22l171 142l-150 146q-17 16 -32 21t-49 5v66h296v-66h-32q-17 0 -17 -13q0 -14 15 -29l53 -56l62 56q19 17 19 28q0 14 -25 14h-29v66h250v-66q-51 0 -91 -34l-135 -116l127 -131q35 -36 55.5 -45.5t60.5 -9.5v-66h-308v66h31q36 0 36 15 q0 7 -18 26l-67 70l-97 -83q-6 -5 -6 -12q0 -16 35 -16h39v-66z" />
<glyph unicode="y" horiz-adv-x="611" d="M17 402v66h289v-66h-43q-29 0 -29 -22q0 -6 9 -28l90 -212h2l83 203q9 22 9 35q0 10 -9.5 17t-22.5 7h-43v66h241v-66q-63 0 -82 -45l-162 -385q-42 -100 -86.5 -142t-113.5 -42q-55 0 -94 32t-39 89q0 38 20.5 63t56.5 25q28 0 48.5 -18t20.5 -45q0 -23 -14.5 -40 t-34.5 -17q-4 0 -13 0.5t-13 0.5q14 -24 49 -24q75 0 108 73l33 73l-169 363q-18 39 -91 39z" />
<glyph unicode="z" horiz-adv-x="500" d="M470 0h-444v75l298 327h-123q-33 0 -56 -19.5t-23 -60.5v-60h-75v206h423v-76l-298 -326h117q58 0 82 29.5t24 84.5v42h75v-222z" />
<glyph unicode="{" horiz-adv-x="389" d="M103 -69v179q0 52 -15.5 77t-60.5 39q45 14 60.5 39.5t15.5 75.5v180q0 87 42.5 114.5t155.5 27.5v-11q-40 -12 -56.5 -41.5t-16.5 -84.5v-170q0 -57 -16 -86.5t-65 -42.5v-2q49 -13 65 -42t16 -89v-169q0 -54 16.5 -84t56.5 -42v-11q-113 0 -155.5 27.5t-42.5 115.5z " />
<glyph unicode="|" horiz-adv-x="222" d="M70 750h82v-1000h-82v1000z" />
<glyph unicode="}" horiz-adv-x="389" d="M161 356v170q0 55 -16.5 84.5t-56.5 41.5v11q113 0 155.5 -27.5t42.5 -114.5v-180q0 -50 15.5 -75.5t60.5 -38.5v-2q-45 -13 -60.5 -38t-15.5 -77v-179q0 -88 -42.5 -115.5t-155.5 -27.5v11q40 12 56.5 42t16.5 84v169q0 60 16 89t65 42v2q-49 13 -65 42.5t-16 86.5z" />
<glyph unicode="~" horiz-adv-x="600" d="M495 314l36 -70q-20 -27 -33 -42t-38 -29.5t-54 -14.5q-42 0 -102 33q-62 35 -115 35q-51 0 -84 -72l-36 70q45 86 125 86q39 0 111 -32l21 -10q15 -6 24 -10l20 -8q11 -4 20 -6t17 -2q19 0 36.5 12t27 24.5t24.5 35.5z" />
<glyph unicode="&#xa1;" horiz-adv-x="333" d="M144 287h52l37 -347q0 -4 3.5 -31t3.5 -41q0 -36 -18 -58t-52 -22q-40 0 -59 22t-19 58q0 18 7 72zM240 412q0 -32 -21 -53t-53 -21t-53 21t-21 53t21 53t53 21t53 -21t21 -53z" />
<glyph unicode="&#xa2;" horiz-adv-x="611" d="M258 100l125 234q8 41 56 44q-30 39 -91 39q-69 0 -103 -49.5t-34 -115.5q0 -105 47 -152zM449 192h79q-16 -207 -216 -207q-31 0 -52 4l-55 -106h-58l62 121q-64 26 -98 85t-34 142q0 109 73 180.5t185 71.5q62 0 107 -24l49 94h59l-64 -125q44 -46 44 -102 q0 -31 -20 -52t-52 -21t-54 16l-101 -197q13 -4 31 -4q103 0 115 124z" />
<glyph unicode="&#xa3;" horiz-adv-x="611" d="M76 -10l-37 79q54 36 77 83.5t23 122.5h-98v50h83q-42 54 -42 128q0 61 40.5 100.5t92.5 53t112 13.5q35 0 73 -8t74.5 -24t59.5 -46t23 -68q0 -40 -23.5 -63t-60.5 -23q-32 0 -52.5 20t-20.5 48q0 50 57 60q-13 18 -44.5 30t-63.5 12q-49 0 -86.5 -22.5t-37.5 -67.5 q0 -27 22 -82l24 -59h127v-52h-119q0 -85 -88 -144l2 -2q49 20 99 20q46 0 103 -24q62 -25 75 -25q49 0 49 97h53q0 -43 -5 -76t-18.5 -66.5t-43 -51.5t-73.5 -18t-116 33q-70 32 -116 32q-67 0 -124 -60z" />
<glyph unicode="&#xa4;" horiz-adv-x="611" d="M52 145l55 58q-50 61 -50 146q0 96 52 148l-57 58l49 49l56 -56q59 50 151 50q86 0 143 -49l57 56l51 -51l-55 -55q49 -55 49 -148q0 -89 -49 -150l54 -56l-47 -47l-56 58q-57 -54 -148 -54q-93 0 -152 53l-55 -58zM305 521q-68 0 -117 -50t-49 -121t49 -121t117 -50 t117 50t49 121t-49 121t-117 50z" />
<glyph unicode="&#xa5;" horiz-adv-x="611" d="M-27 539v66h326v-66h-35q-36 0 -46 -4.5t-10 -17.5q0 -9 16 -32l100 -144l107 143q16 22 16 31q0 13 -11.5 18.5t-44.5 5.5h-35v66h292v-66h-27q-22 0 -35 -7.5t-32 -33.5l-51 -69h92v-52h-130l-70 -94h163v-52h-189v-130q0 -35 35 -35h80v-66h-358v66h79q35 0 35 35v130 h-174v52h150l-66 94h-127v52h91l-51 71q-28 39 -66 39h-24z" />
<glyph unicode="&#xa6;" horiz-adv-x="222" d="M70 675h82v-350h-82v350zM70 175h82v-350h-82v350z" />
<glyph unicode="&#xa7;" horiz-adv-x="611" d="M149 266q0 -30 34 -56t78 -40t77 -21.5t41 -7.5q31 0 57 22.5t26 65.5q0 30 -31 56t-72 40t-75 22t-48 8q-39 0 -63 -23t-24 -66zM552 252q0 -55 -35.5 -93t-91.5 -56v-2q45 -15 68.5 -52t23.5 -86q0 -84 -68 -129.5t-156 -45.5q-33 0 -66.5 6.5t-66.5 20.5t-54 41 t-21 63q0 30 19 51t49 21q33 0 53 -17.5t20 -39.5q0 -31 -12.5 -45.5t-41.5 -14.5v-2q48 -34 124 -34q48 0 89.5 31.5t41.5 77.5q0 38 -38 63t-92 41t-108 35t-92 58t-38 97q0 59 35 99.5t94 47.5v2q-88 46 -88 133q0 56 35 93.5t82 52t102 14.5q30 0 60.5 -6t60 -19 t48 -36.5t18.5 -55.5q0 -29 -17 -50t-46 -21q-30 0 -49.5 16t-19.5 45q0 38 36 57v1q-46 19 -91 19q-51 0 -90 -21t-39 -68q0 -32 37.5 -56.5t90.5 -43t106 -41t90.5 -61t37.5 -90.5z" />
<glyph unicode="&#xa8;" horiz-adv-x="333" d="M207 611q0 26 18.5 45.5t46.5 19.5t46.5 -19.5t18.5 -45.5t-18.5 -45.5t-46.5 -19.5t-46.5 19.5t-18.5 45.5zM-3 611q0 26 18.5 45.5t46.5 19.5t46.5 -19.5t18.5 -45.5t-18.5 -45.5t-46.5 -19.5t-46.5 19.5t-18.5 45.5z" />
<glyph unicode="&#xa9;" horiz-adv-x="800" d="M400 -20q-150 0 -252 101.5t-102 249.5t102 250t252 102q151 0 252.5 -102t101.5 -250t-101.5 -249.5t-252.5 -101.5zM400 31q119 0 200.5 88t81.5 212t-81.5 212.5t-200.5 88.5t-200.5 -88.5t-81.5 -212.5t81.5 -212t200.5 -88zM554 252h20l-16 -73q0 -6 -5 -10 t-8.5 -5.5t-15.5 -5.5q-72 -19 -109 -19q-101 0 -161 51t-60 151q0 34 12.5 67t38 62.5t71.5 48t107 18.5q52 0 106 -18q23 -7 23 -21v-71h-20q-21 88 -110 88q-61 0 -92 -45.5t-32 -123.5v-6q0 -177 127 -177q84 0 124 89z" />
<glyph unicode="&#xaa;" horiz-adv-x="334" d="M299 434h41q0 -64 -16 -88.5t-65 -24.5q-61 0 -68 44q-32 -44 -107 -44q-41 0 -65.5 18.5t-24.5 57.5q0 32 20 51t49 26.5t57.5 13t48.5 18.5t20 36q0 45 -70 45q-45 0 -60 -19q5 1 10 1q33 0 33 -33q0 -35 -46 -35q-21 0 -34 13t-13 31q0 41 40.5 58t90.5 17 q30 0 56 -5.5t48 -22t22 -42.5v-164q0 -20 15 -20q18 0 18 46v22zM189 439v39l-69 -29q-39 -16 -39 -45q0 -38 39 -38q32 0 50.5 21.5t18.5 51.5z" />
<glyph unicode="&#xab;" horiz-adv-x="500" d="M163 399h69q-2 -9 -16 -48l-28 -75q-13 -35 -13 -40q0 -7 27.5 -82t29.5 -84h-69q-5 10 -29.5 47t-44 70.5t-19.5 44.5q0 12 19.5 46t44 72t29.5 49zM361 399h69q-2 -9 -16 -48l-28 -75q-13 -35 -13 -40q0 -7 27.5 -82t29.5 -84h-69q-5 10 -29.5 47t-44 70.5t-19.5 44.5 q0 12 19.5 46t44 72t29.5 49z" />
<glyph unicode="&#xac;" horiz-adv-x="600" d="M452 102v185h-386v82h468v-267h-82z" />
<glyph unicode="&#xad;" horiz-adv-x="333" d="M296 182h-259v104h259v-104z" />
<glyph unicode="&#xae;" horiz-adv-x="800" d="M400 -20q-150 0 -252 101.5t-102 249.5t102 250t252 102q151 0 252.5 -102t101.5 -250t-101.5 -249.5t-252.5 -101.5zM400 31q119 0 200.5 88t81.5 212t-81.5 212.5t-200.5 88.5t-200.5 -88.5t-81.5 -212.5t81.5 -212t200.5 -88zM230 508v18h197q51 0 84 -24t33 -72 q0 -35 -22 -63.5t-59 -39.5l59 -82q40 -55 71 -83v-12h-82q-14 0 -29.5 21.5t-41 69t-44.5 75.5h-37v-104q0 -29 6 -35.5t41 -8.5v-18h-176v18q35 2 41 8.5t6 35.5v253q0 28 -6 34.5t-41 8.5zM359 503v-166h35q64 0 64 89q0 77 -63 77h-36z" />
<glyph unicode="&#xaf;" horiz-adv-x="333" d="M332 574h-331v72h331v-72z" />
<glyph unicode="&#x2c9;" horiz-adv-x="333" d="M332 574h-331v72h331v-72z" />
<glyph unicode="&#xb0;" horiz-adv-x="400" d="M200 577q-42 0 -68.5 -28.5t-26.5 -71.5t26.5 -71.5t68.5 -28.5t68.5 28.5t26.5 71.5t-26.5 71.5t-68.5 28.5zM200 334q-60 0 -101.5 41.5t-41.5 101.5t41.5 101.5t101.5 41.5t101.5 -41.5t41.5 -101.5t-41.5 -101.5t-101.5 -41.5z" />
<glyph unicode="&#xb1;" horiz-adv-x="600" d="M259 332v136h82v-136h193v-82h-193v-136h-82v136h-193v82h193zM66 0v82h468v-82h-468z" />
<glyph unicode="&#xb2;" horiz-adv-x="366" d="M54 244h-35v27q0 44 23.5 74.5t56.5 47t66.5 30.5t57 34.5t23.5 49.5q0 35 -25 53.5t-62 18.5q-67 0 -86 -46q9 2 26 2q19 0 31.5 -12.5t12.5 -27.5q0 -21 -15 -34t-43 -13q-26 0 -42 17t-16 46q0 47 42.5 78t118.5 31q65 0 110 -33.5t45 -79.5q0 -44 -24.5 -70.5 t-61.5 -37t-75 -18.5t-69.5 -24.5t-40.5 -44.5l1 -2q19 17 47 17q1 0 66 -9q58 -10 87 -10q41 0 44 68h36v-13q0 -124 -103 -124q-39 0 -89 23q-52 22 -72 22q-29 0 -35 -40z" />
<glyph unicode="&#xb3;" horiz-adv-x="366" d="M144 418v42q103 0 103 59q0 32 -24.5 47.5t-60.5 15.5q-46 0 -72 -22l1 -1h3q17 0 28 -10q11 -11 11 -30q0 -17 -15 -29t-40 -12q-23 0 -36.5 13t-13.5 35q0 33 28.5 55.5t62.5 30.5t68 8q56 0 103.5 -23t47.5 -71q0 -70 -99 -85v-2q56 -10 84 -28.5t28 -64.5 q0 -58 -52 -82.5t-122 -24.5q-40 0 -74 7.5t-61.5 31.5t-27.5 61q0 23 16.5 38.5t41.5 15.5q20 0 36.5 -12t16.5 -30q0 -21 -12.5 -33t-28.5 -12q-11 0 -15 1l-2 -1q23 -29 85 -29q101 0 101 72q0 69 -98 69h-11z" />
<glyph unicode="&#xb4;" horiz-adv-x="333" d="M145 537h-59l97 111q3 3 16 18.5t18.5 21.5t17.5 16t23 14t23 4q16 0 30 -12.5t14 -28.5q0 -21 -7.5 -31t-26.5 -22z" />
<glyph unicode="&#xb5;" horiz-adv-x="667" d="M24 -212v66h50q21 0 30.5 9t9.5 31v468q0 22 -9.5 31t-30.5 9h-51v66h209v-336q0 -27 21 -48t56 -21q58 0 90.5 42.5t32.5 84.5v172q0 40 -53 40h-50v66h221v-362q0 -22 11.5 -31t41.5 -9h44v-66h-215v79h-2q-28 -48 -68 -71t-75 -23q-36 0 -55 15v-212h-208z" />
<glyph unicode="&#x3bc;" horiz-adv-x="667" d="M24 -212v66h50q21 0 30.5 9t9.5 31v468q0 22 -9.5 31t-30.5 9h-51v66h209v-336q0 -27 21 -48t56 -21q58 0 90.5 42.5t32.5 84.5v172q0 40 -53 40h-50v66h221v-362q0 -22 11.5 -31t41.5 -9h44v-66h-215v79h-2q-28 -48 -68 -71t-75 -23q-36 0 -55 15v-212h-208z" />
<glyph unicode="&#xb6;" horiz-adv-x="600" d="M314 -199h-82v453q-88 0 -134.5 57t-46.5 154q0 105 48.5 151.5t160.5 46.5h273v-24q-40 0 -59 -17.5t-19 -61.5v-759h-82v832h-59v-832z" />
<glyph unicode="&#xb7;" horiz-adv-x="305" d="M79 234q0 32 21.5 53t52.5 21t52.5 -21t21.5 -53t-21.5 -53t-52.5 -21t-52.5 21t-21.5 53z" />
<glyph unicode="&#x2219;" horiz-adv-x="305" d="M79 234q0 32 21.5 53t52.5 21t52.5 -21t21.5 -53t-21.5 -53t-52.5 -21t-52.5 21t-21.5 53z" />
<glyph unicode="&#xb8;" horiz-adv-x="333" d="M79 -90l43 90h41l-28 -58q22 5 39 5q83 0 83 -79q0 -41 -43 -60.5t-89 -19.5q-55 0 -95 18l16 37q30 -14 60 -14q57 0 57 41q0 17 -12.5 26.5t-30.5 9.5q-15 0 -32 -4z" />
<glyph unicode="&#xb9;" horiz-adv-x="366" d="M320 248h-244v40h36q45 0 45 24v204h-83v41q43 2 69 13t44 41h54v-299q0 -24 46 -24h33v-40z" />
<glyph unicode="&#xba;" horiz-adv-x="334" d="M88 470q0 -109 79 -109t79 109q0 110 -79 110t-79 -110zM0 470q0 70 46 110t121 40t121 -40t46 -110t-46.5 -109.5t-120.5 -39.5t-120.5 39.5t-46.5 109.5z" />
<glyph unicode="&#xbb;" horiz-adv-x="500" d="M337 70h-69q2 9 16 48l28 74q13 36 13 41q0 7 -27.5 82t-29.5 84h69q5 -10 29.5 -47t44 -70.5t19.5 -44.5q0 -12 -19.5 -46t-44 -72t-29.5 -49zM139 70h-69q2 9 16 48l28 74q13 36 13 41q0 7 -27.5 82t-29.5 84h69q5 -10 29.5 -47t44 -70.5t19.5 -44.5q0 -12 -19.5 -46 t-44 -72t-29.5 -49z" />
<glyph unicode="&#xbc;" horiz-adv-x="916" d="M189 -15l435 635h66l-435 -635h-66zM653 282l-126 -133h126v133zM653 100h-197v43l216 220h63v-214h75v-49h-75v-35q0 -15 4.5 -20t20.5 -5h50v-40h-232v40h50q16 0 20.5 5t4.5 20v35zM299 248h-244v40h36q45 0 45 24v204h-83v41q43 2 69 13t44 41h54v-299q0 -24 46 -24 h33v-40z" />
<glyph unicode="&#xbd;" horiz-adv-x="916" d="M189 -15l435 635h66l-435 -635h-66zM299 248h-244v40h36q45 0 45 24v204h-83v41q43 2 69 13t44 41h54v-299q0 -24 46 -24h33v-40zM573 0h-35v27q0 44 23.5 74.5t57 47t66.5 30.5t56.5 34.5t23.5 49.5q0 35 -25 53.5t-62 18.5q-67 0 -86 -46q9 2 26 2q19 0 31.5 -12.5 t12.5 -27.5q0 -21 -15 -34t-43 -13q-26 0 -42 17t-16 46q0 47 42.5 78t118.5 31q65 0 110 -33.5t45 -79.5q0 -44 -24.5 -70.5t-61.5 -37t-75 -18.5t-69.5 -24.5t-40.5 -44.5l1 -2q19 17 47 17q1 0 66 -9q58 -10 87 -10q41 0 44 68h36v-13q0 -124 -103 -124q-39 0 -89 23 q-52 22 -72 22q-29 0 -35 -40z" />
<glyph unicode="&#xbe;" horiz-adv-x="916" d="M198 -15l435 635h66l-435 -635h-66zM150 418v42q103 0 103 59q0 32 -24.5 47.5t-60.5 15.5q-46 0 -72 -22l1 -1h3q17 0 28 -10q11 -11 11 -30q0 -17 -15 -29t-40 -12q-23 0 -36.5 13t-13.5 35q0 33 28.5 55.5t62.5 30.5t68 8q56 0 103.5 -23t47.5 -71q0 -70 -99 -85v-2 q56 -10 84 -28.5t28 -64.5q0 -58 -52 -82.5t-122 -24.5q-40 0 -74 7.5t-61.5 31.5t-27.5 61q0 23 16.5 38.5t41.5 15.5q20 0 36.5 -12t16.5 -30q0 -21 -12.5 -33t-28.5 -12q-11 0 -15 1l-2 -1q23 -29 85 -29q101 0 101 72q0 69 -98 69h-11zM653 282l-126 -133h126v133z M653 100h-197v43l216 220h63v-214h75v-49h-75v-35q0 -15 4.5 -20t20.5 -5h50v-40h-232v40h50q16 0 20.5 5t4.5 20v35z" />
<glyph unicode="&#xbf;" horiz-adv-x="500" d="M242 286h64v-59q0 -28 -14.5 -55t-35.5 -49l-41 -45q-21 -22 -35.5 -51t-14.5 -60q0 -49 37.5 -77t83.5 -28q119 0 130 115q-26 -24 -56 -24q-26 0 -46 18.5t-20 49.5q0 30 21 50.5t57 20.5q48 0 76.5 -33.5t28.5 -82.5q0 -86 -65 -137t-154 -51q-91 0 -163 47t-72 134 q0 33 12 60.5t31.5 47t42.5 37t46.5 33.5t43 32.5t31.5 38.5t12 47v21zM350 412q0 -32 -21 -53t-53 -21t-53 21t-21 53t21 53t53 21t53 -21t21 -53z" />
<glyph unicode="&#xc0;" d="M331 0h-312v74q44 0 68.5 10.5t36.5 43.5l191 535h140l200 -535q13 -33 37 -43.5t68 -10.5v-74h-348v74h79q31 0 31 15q0 12 -4 24l-33 100h-227l-33 -100q-4 -12 -4 -21q0 -18 32 -18h78v-74zM287 287h169l-87 241h-2zM456 711h-59l-146 91q-19 12 -26.5 22t-7.5 31 q0 16 14 28.5t30 12.5q12 0 23 -4t23 -14t17.5 -16t18.5 -21.5t16 -18.5z" />
<glyph unicode="&#xc1;" d="M331 0h-312v74q44 0 68.5 10.5t36.5 43.5l191 535h140l200 -535q13 -33 37 -43.5t68 -10.5v-74h-348v74h79q31 0 31 15q0 12 -4 24l-33 100h-227l-33 -100q-4 -12 -4 -21q0 -18 32 -18h78v-74zM287 287h169l-87 241h-2zM354 711h-59l97 111q3 3 16 18.5t18.5 21.5 t17.5 16t23 14t23 4q16 0 30 -12.5t14 -28.5q0 -21 -7.5 -31t-26.5 -22z" />
<glyph unicode="&#xc2;" d="M331 0h-312v74q44 0 68.5 10.5t36.5 43.5l191 535h140l200 -535q13 -33 37 -43.5t68 -10.5v-74h-348v74h79q31 0 31 15q0 12 -4 24l-33 100h-227l-33 -100q-4 -12 -4 -21q0 -18 32 -18h78v-74zM287 287h169l-87 241h-2zM329 887h93l122 -176h-56l-112 98l-112 -98h-56z " />
<glyph unicode="&#xc3;" d="M331 0h-312v74q44 0 68.5 10.5t36.5 43.5l191 535h140l200 -535q13 -33 37 -43.5t68 -10.5v-74h-348v74h79q31 0 31 15q0 12 -4 24l-33 100h-227l-33 -100q-4 -12 -4 -21q0 -18 32 -18h78v-74zM287 287h169l-87 241h-2zM516 857h43q-30 -126 -117 -126q-34 0 -88 24 q-52 24 -76 24q-16 0 -27.5 -15t-16.5 -32h-40q7 52 37.5 88.5t80.5 36.5q29 0 83 -24q54 -25 65 -25q23 0 34 11.5t22 37.5z" />
<glyph unicode="&#xc4;" d="M331 0h-312v74q44 0 68.5 10.5t36.5 43.5l191 535h140l200 -535q13 -33 37 -43.5t68 -10.5v-74h-348v74h79q31 0 31 15q0 12 -4 24l-33 100h-227l-33 -100q-4 -12 -4 -21q0 -18 32 -18h78v-74zM287 287h169l-87 241h-2zM416 785q0 26 18.5 45.5t46.5 19.5t46.5 -19.5 t18.5 -45.5t-18.5 -45.5t-46.5 -19.5t-46.5 19.5t-18.5 45.5zM206 785q0 26 18.5 45.5t46.5 19.5t46.5 -19.5t18.5 -45.5t-18.5 -45.5t-46.5 -19.5t-46.5 19.5t-18.5 45.5z" />
<glyph unicode="&#xc5;" d="M331 0h-312v74q44 0 68.5 10.5t36.5 43.5l191 535h140l200 -535q13 -33 37 -43.5t68 -10.5v-74h-348v74h79q31 0 31 15q0 12 -4 24l-33 100h-227l-33 -100q-4 -12 -4 -21q0 -18 32 -18h78v-74zM287 287h169l-87 241h-2zM375 919q45 0 75.5 -30t30.5 -75t-30.5 -75.5 t-75.5 -30.5t-75.5 30.5t-30.5 75.5t30.5 75t75.5 30zM375 871q-25 0 -41 -16t-16 -41t16 -41.5t41 -16.5t41 16.5t16 41.5t-16 41t-41 16z" />
<glyph unicode="&#xc6;" horiz-adv-x="1000" d="M294 334h149v263h-2zM250 0h-261v74q34 1 47.5 10.5t31.5 42.5l234 418q12 24 12 28q0 16 -21 16h-80v74h746v-257h-74q-4 106 -32 144.5t-105 38.5h-173v-208h71q37 0 50 26t13 72v27h74v-333h-74v25q0 48 -21 78.5t-60 30.5h-53v-233h143q55 0 86 8.5t49 35t23.5 61 t8.5 101.5h74v-280h-600v74h22q62 0 62 50v136h-190l-73 -133q-13 -24 -13 -35q0 -18 30 -18h53v-74z" />
<glyph unicode="&#xc7;" horiz-adv-x="667" d="M546 252h86q-9 -128 -79 -197.5t-195 -73.5l-19 -39q22 5 39 5q83 0 83 -79q0 -41 -43 -60.5t-89 -19.5q-55 0 -95 18l16 37q30 -14 60 -14q57 0 57 41q0 17 -12.5 26.5t-30.5 9.5q-15 0 -32 -4l-9 8l34 71q-141 10 -216.5 107t-75.5 253q0 146 90 244t242 98 q48 0 98 -20.5t84 -52.5l19 63h71v-274h-74q-11 89 -57.5 143.5t-131.5 54.5q-53 0 -90.5 -22.5t-57 -62t-28 -83.5t-8.5 -97q0 -52 9 -96.5t28.5 -84t57 -62.5t89.5 -23q82 0 126.5 50.5t53.5 135.5z" />
<glyph unicode="&#xc8;" horiz-adv-x="722" d="M679 0h-660v74h56q28 0 40.5 14t12.5 56v389q0 33 -13 44.5t-51 11.5h-45v74h660v-264h-74q-4 40 -7.5 62t-11 47t-17.5 37.5t-27 24t-40.5 15.5t-57.5 4h-176v-208h53q46 0 66.5 25.5t20.5 85.5v13h74v-334h-74v24q0 60 -20.5 86t-66.5 26h-53v-233h200q69 0 99.5 47 t37.5 159h74v-280zM451 711h-59l-146 91q-19 12 -26.5 22t-7.5 31q0 16 14 28.5t30 12.5q12 0 23 -4t23 -14t17.5 -16t18.5 -21.5t16 -18.5z" />
<glyph unicode="&#xc9;" horiz-adv-x="722" d="M679 0h-660v74h56q28 0 40.5 14t12.5 56v389q0 33 -13 44.5t-51 11.5h-45v74h660v-264h-74q-4 40 -7.5 62t-11 47t-17.5 37.5t-27 24t-40.5 15.5t-57.5 4h-176v-208h53q46 0 66.5 25.5t20.5 85.5v13h74v-334h-74v24q0 60 -20.5 86t-66.5 26h-53v-233h200q69 0 99.5 47 t37.5 159h74v-280zM349 711h-59l97 111q3 3 16 18.5t18.5 21.5t17.5 16t23 14t23 4q16 0 30 -12.5t14 -28.5q0 -21 -7.5 -31t-26.5 -22z" />
<glyph unicode="&#xca;" horiz-adv-x="722" d="M679 0h-660v74h56q28 0 40.5 14t12.5 56v389q0 33 -13 44.5t-51 11.5h-45v74h660v-264h-74q-4 40 -7.5 62t-11 47t-17.5 37.5t-27 24t-40.5 15.5t-57.5 4h-176v-208h53q46 0 66.5 25.5t20.5 85.5v13h74v-334h-74v24q0 60 -20.5 86t-66.5 26h-53v-233h200q69 0 99.5 47 t37.5 159h74v-280zM324 887h93l122 -176h-56l-112 98l-112 -98h-56z" />
<glyph unicode="&#xcb;" horiz-adv-x="722" d="M679 0h-660v74h56q28 0 40.5 14t12.5 56v389q0 33 -13 44.5t-51 11.5h-45v74h660v-264h-74q-4 40 -7.5 62t-11 47t-17.5 37.5t-27 24t-40.5 15.5t-57.5 4h-176v-208h53q46 0 66.5 25.5t20.5 85.5v13h74v-334h-74v24q0 60 -20.5 86t-66.5 26h-53v-233h200q69 0 99.5 47 t37.5 159h74v-280zM411 785q0 26 18.5 45.5t46.5 19.5t46.5 -19.5t18.5 -45.5t-18.5 -45.5t-46.5 -19.5t-46.5 19.5t-18.5 45.5zM201 785q0 26 18.5 45.5t46.5 19.5t46.5 -19.5t18.5 -45.5t-18.5 -45.5t-46.5 -19.5t-46.5 19.5t-18.5 45.5z" />
<glyph unicode="&#xcc;" horiz-adv-x="389" d="M372 0h-354v74h50q31 0 44 8.5t13 27.5v434q0 45 -51 45h-56v74h354v-74h-44q-63 0 -63 -48v-418q0 -49 49 -49h58v-74zM270 711h-59l-146 91q-19 12 -26.5 22t-7.5 31q0 16 14 28.5t30 12.5q12 0 23 -4t23 -14t17.5 -16t18.5 -21.5t16 -18.5z" />
<glyph unicode="&#xcd;" horiz-adv-x="389" d="M372 0h-354v74h50q31 0 44 8.5t13 27.5v434q0 45 -51 45h-56v74h354v-74h-44q-63 0 -63 -48v-418q0 -49 49 -49h58v-74zM168 711h-59l97 111q3 3 16 18.5t18.5 21.5t17.5 16t23 14t23 4q16 0 30 -12.5t14 -28.5q0 -21 -7.5 -31t-26.5 -22z" />
<glyph unicode="&#xce;" horiz-adv-x="389" d="M372 0h-354v74h50q31 0 44 8.5t13 27.5v434q0 45 -51 45h-56v74h354v-74h-44q-63 0 -63 -48v-418q0 -49 49 -49h58v-74zM143 887h93l122 -176h-56l-112 98l-112 -98h-56z" />
<glyph unicode="&#xcf;" horiz-adv-x="389" d="M372 0h-354v74h50q31 0 44 8.5t13 27.5v434q0 45 -51 45h-56v74h354v-74h-44q-63 0 -63 -48v-418q0 -49 49 -49h58v-74zM230 785q0 26 18.5 45.5t46.5 19.5t46.5 -19.5t18.5 -45.5t-18.5 -45.5t-46.5 -19.5t-46.5 19.5t-18.5 45.5zM20 785q0 26 18.5 45.5t46.5 19.5 t46.5 -19.5t18.5 -45.5t-18.5 -45.5t-46.5 -19.5t-46.5 19.5t-18.5 45.5z" />
<glyph unicode="&#xd0;" d="M399 376v-74h-133v-228h123q206 0 206 258q0 138 -54 197.5t-142 59.5h-133v-213h133zM19 302v74h107v179q0 34 -43 34h-64v74h399q154 0 244 -85t90 -246t-90 -246.5t-244 -85.5h-399v74h64q43 0 43 34v194h-107z" />
<glyph unicode="&#xd1;" horiz-adv-x="833" d="M563 0l-327 537h-2v-423q0 -18 11 -29t30 -11h75v-74h-331v74h70q41 0 41 40v439q0 20 -9 28t-32 8h-70v74h295l291 -477h2v356q0 47 -52 47h-61v74h326v-74h-59q-50 0 -50 -35v-554h-148zM557 857h43q-30 -126 -117 -126q-34 0 -88 24q-52 24 -76 24q-16 0 -27.5 -15 t-16.5 -32h-40q7 52 37.5 88.5t80.5 36.5q29 0 83 -24q54 -25 65 -25q23 0 34 11.5t22 37.5z" />
<glyph unicode="&#xd2;" d="M389 683q161 0 261 -100.5t100 -251.5t-100 -251t-261 -100t-261 100t-100 251t100 251.5t261 100.5zM389 605q-57 0 -98 -22t-63.5 -62t-32.5 -86.5t-10 -103.5q0 -78 17 -135.5t65 -97.5t125 -40q201 0 201 273q0 274 -204 274zM470 711h-59l-146 91q-19 12 -26.5 22 t-7.5 31q0 16 14 28.5t30 12.5q12 0 23 -4t23 -14t17.5 -16t18.5 -21.5t16 -18.5z" />
<glyph unicode="&#xd3;" d="M389 683q161 0 261 -100.5t100 -251.5t-100 -251t-261 -100t-261 100t-100 251t100 251.5t261 100.5zM389 605q-57 0 -98 -22t-63.5 -62t-32.5 -86.5t-10 -103.5q0 -78 17 -135.5t65 -97.5t125 -40q201 0 201 273q0 274 -204 274zM368 711h-59l97 111q3 3 16 18.5 t18.5 21.5t17.5 16t23 14t23 4q16 0 30 -12.5t14 -28.5q0 -21 -7.5 -31t-26.5 -22z" />
<glyph unicode="&#xd4;" d="M389 683q161 0 261 -100.5t100 -251.5t-100 -251t-261 -100t-261 100t-100 251t100 251.5t261 100.5zM389 605q-57 0 -98 -22t-63.5 -62t-32.5 -86.5t-10 -103.5q0 -78 17 -135.5t65 -97.5t125 -40q201 0 201 273q0 274 -204 274zM343 887h93l122 -176h-56l-112 98 l-112 -98h-56z" />
<glyph unicode="&#xd5;" d="M389 683q161 0 261 -100.5t100 -251.5t-100 -251t-261 -100t-261 100t-100 251t100 251.5t261 100.5zM389 605q-57 0 -98 -22t-63.5 -62t-32.5 -86.5t-10 -103.5q0 -78 17 -135.5t65 -97.5t125 -40q201 0 201 273q0 274 -204 274zM530 857h43q-30 -126 -117 -126 q-34 0 -88 24q-52 24 -76 24q-16 0 -27.5 -15t-16.5 -32h-40q7 52 37.5 88.5t80.5 36.5q29 0 83 -24q54 -25 65 -25q23 0 34 11.5t22 37.5z" />
<glyph unicode="&#xd6;" d="M389 683q161 0 261 -100.5t100 -251.5t-100 -251t-261 -100t-261 100t-100 251t100 251.5t261 100.5zM389 605q-57 0 -98 -22t-63.5 -62t-32.5 -86.5t-10 -103.5q0 -78 17 -135.5t65 -97.5t125 -40q201 0 201 273q0 274 -204 274zM430 785q0 26 18.5 45.5t46.5 19.5 t46.5 -19.5t18.5 -45.5t-18.5 -45.5t-46.5 -19.5t-46.5 19.5t-18.5 45.5zM220 785q0 26 18.5 45.5t46.5 19.5t46.5 -19.5t18.5 -45.5t-18.5 -45.5t-46.5 -19.5t-46.5 19.5t-18.5 45.5z" />
<glyph unicode="&#xd7;" horiz-adv-x="600" d="M242 234l-176 176l58 58l176 -176l176 176l58 -58l-176 -176l176 -177l-58 -57l-176 176l-176 -176l-58 57z" />
<glyph unicode="&#xd8;" d="M206 187l329 357q-50 61 -146 61q-57 0 -98 -22t-63.5 -62t-32.5 -86.5t-10 -103.5q0 -84 21 -144zM569 485l-330 -358q50 -69 153 -69q201 0 201 273q0 94 -24 154zM93 -31l-47 44l72 78q-90 98 -90 240q0 151 100 251.5t261 100.5q125 0 215 -63l77 84l48 -44l-75 -82 q96 -99 96 -247q0 -151 -100 -251t-261 -100q-130 0 -223 68z" />
<glyph unicode="&#xd9;" d="M20 589v74h356v-74h-46q-36 0 -48.5 -9t-12.5 -30v-370q0 -52 36 -79t101 -27q142 0 142 136v324q0 30 -13 42.5t-47 12.5h-47v74h318v-74h-55q-31 0 -41.5 -11.5t-10.5 -43.5v-332q0 -63 -22 -108.5t-60.5 -69t-82 -34t-95.5 -10.5t-96.5 10t-83 32t-61 62.5t-22.5 95.5 v368q0 41 -67 41h-42zM470 711h-59l-146 91q-19 12 -26.5 22t-7.5 31q0 16 14 28.5t30 12.5q12 0 23 -4t23 -14t17.5 -16t18.5 -21.5t16 -18.5z" />
<glyph unicode="&#xda;" d="M20 589v74h356v-74h-46q-36 0 -48.5 -9t-12.5 -30v-370q0 -52 36 -79t101 -27q142 0 142 136v324q0 30 -13 42.5t-47 12.5h-47v74h318v-74h-55q-31 0 -41.5 -11.5t-10.5 -43.5v-332q0 -63 -22 -108.5t-60.5 -69t-82 -34t-95.5 -10.5t-96.5 10t-83 32t-61 62.5t-22.5 95.5 v368q0 41 -67 41h-42zM368 711h-59l97 111q3 3 16 18.5t18.5 21.5t17.5 16t23 14t23 4q16 0 30 -12.5t14 -28.5q0 -21 -7.5 -31t-26.5 -22z" />
<glyph unicode="&#xdb;" d="M20 589v74h356v-74h-46q-36 0 -48.5 -9t-12.5 -30v-370q0 -52 36 -79t101 -27q142 0 142 136v324q0 30 -13 42.5t-47 12.5h-47v74h318v-74h-55q-31 0 -41.5 -11.5t-10.5 -43.5v-332q0 -63 -22 -108.5t-60.5 -69t-82 -34t-95.5 -10.5t-96.5 10t-83 32t-61 62.5t-22.5 95.5 v368q0 41 -67 41h-42zM343 887h93l122 -176h-56l-112 98l-112 -98h-56z" />
<glyph unicode="&#xdc;" d="M20 589v74h356v-74h-46q-36 0 -48.5 -9t-12.5 -30v-370q0 -52 36 -79t101 -27q142 0 142 136v324q0 30 -13 42.5t-47 12.5h-47v74h318v-74h-55q-31 0 -41.5 -11.5t-10.5 -43.5v-332q0 -63 -22 -108.5t-60.5 -69t-82 -34t-95.5 -10.5t-96.5 10t-83 32t-61 62.5t-22.5 95.5 v368q0 41 -67 41h-42zM430 785q0 26 18.5 45.5t46.5 19.5t46.5 -19.5t18.5 -45.5t-18.5 -45.5t-46.5 -19.5t-46.5 19.5t-18.5 45.5zM220 785q0 26 18.5 45.5t46.5 19.5t46.5 -19.5t18.5 -45.5t-18.5 -45.5t-46.5 -19.5t-46.5 19.5t-18.5 45.5z" />
<glyph unicode="&#xdd;" d="M24 663h354v-74h-72q-24 0 -24 -23q0 -12 9 -24l114 -168l124 168q9 12 9 24q0 23 -24 23h-74v74h317v-74h-17q-54 0 -77 -33l-209 -284v-157q0 -41 40 -41h85v-74h-389v74h83q23 0 32 8t9 28v168l-197 276q-24 35 -77 35h-16v74zM377 711h-59l97 111q3 3 16 18.5 t18.5 21.5t17.5 16t23 14t23 4q16 0 30 -12.5t14 -28.5q0 -21 -7.5 -31t-26.5 -22z" />
<glyph unicode="&#xde;" horiz-adv-x="667" d="M266 234h93q73 0 108.5 25t35.5 81q0 109 -144 109h-93v-215zM374 160h-108v-50q0 -20 9 -28t32 -8h66v-74h-354v74h66q23 0 32 8t9 28v443q0 20 -9 28t-32 8h-66v74h354v-74h-66q-23 0 -32 -8t-9 -28v-30h108q134 0 204.5 -48t70.5 -134t-70.5 -133.5t-204.5 -47.5z" />
<glyph unicode="&#xdf;" horiz-adv-x="611" d="M287 169h71q0 -65 9.5 -88t34.5 -23q29 0 39.5 34t10.5 120q0 95 -36.5 125t-121.5 30v66q37 4 54 7.5t37.5 13.5t28.5 28.5t8 48.5q0 39 -26.5 62.5t-60.5 23.5q-99 0 -99 -109v-508h-212v66h23q71 0 71 48v398q0 89 61.5 130t154.5 41q54 0 100 -12.5t81.5 -48.5 t35.5 -91q0 -48 -38 -79t-89 -41v-2q162 -31 162 -204q0 -54 -17.5 -102.5t-57.5 -83t-95 -34.5q-79 0 -104 41t-25 143z" />
<glyph unicode="&#xe0;" horiz-adv-x="556" d="M492 174h64v-30q0 -159 -129 -159q-40 0 -67.5 18t-33.5 56q-49 -74 -164 -74q-62 0 -100.5 31.5t-38.5 95.5q0 54 31 85.5t75 43.5t88 21.5t75 30.5t31 60q0 76 -107 76q-25 0 -53 -8.5t-40 -24.5q7 1 13 1q20 0 34 -10q19 -13 19 -43q0 -59 -70 -59q-32 0 -52 21.5 t-20 52.5q0 36 19.5 62t52 38.5t64 18t65.5 5.5q97 0 145 -39.5t48 -105.5v-245q0 -33 24 -33q27 0 27 76v38zM323 182v65l-106 -48q-19 -8 -29.5 -15t-20.5 -23t-10 -38q0 -63 60 -63q49 0 77.5 35.5t28.5 86.5zM336 537h-59l-146 91q-19 12 -26.5 22t-7.5 31q0 16 14 28.5 t30 12.5q12 0 23 -4t23 -14t17.5 -16t18.5 -21.5t16 -18.5z" />
<glyph unicode="&#xe1;" horiz-adv-x="556" d="M492 174h64v-30q0 -159 -129 -159q-40 0 -67.5 18t-33.5 56q-49 -74 -164 -74q-62 0 -100.5 31.5t-38.5 95.5q0 54 31 85.5t75 43.5t88 21.5t75 30.5t31 60q0 76 -107 76q-25 0 -53 -8.5t-40 -24.5q7 1 13 1q20 0 34 -10q19 -13 19 -43q0 -59 -70 -59q-32 0 -52 21.5 t-20 52.5q0 36 19.5 62t52 38.5t64 18t65.5 5.5q97 0 145 -39.5t48 -105.5v-245q0 -33 24 -33q27 0 27 76v38zM323 182v65l-106 -48q-19 -8 -29.5 -15t-20.5 -23t-10 -38q0 -63 60 -63q49 0 77.5 35.5t28.5 86.5zM234 537h-59l97 111q3 3 16 18.5t18.5 21.5t17.5 16t23 14 t23 4q16 0 30 -12.5t14 -28.5q0 -21 -7.5 -31t-26.5 -22z" />
<glyph unicode="&#xe2;" horiz-adv-x="556" d="M492 174h64v-30q0 -159 -129 -159q-40 0 -67.5 18t-33.5 56q-49 -74 -164 -74q-62 0 -100.5 31.5t-38.5 95.5q0 54 31 85.5t75 43.5t88 21.5t75 30.5t31 60q0 76 -107 76q-25 0 -53 -8.5t-40 -24.5q7 1 13 1q20 0 34 -10q19 -13 19 -43q0 -59 -70 -59q-32 0 -52 21.5 t-20 52.5q0 36 19.5 62t52 38.5t64 18t65.5 5.5q97 0 145 -39.5t48 -105.5v-245q0 -33 24 -33q27 0 27 76v38zM323 182v65l-106 -48q-19 -8 -29.5 -15t-20.5 -23t-10 -38q0 -63 60 -63q49 0 77.5 35.5t28.5 86.5zM209 713h93l122 -176h-56l-112 98l-112 -98h-56z" />
<glyph unicode="&#xe3;" horiz-adv-x="556" d="M492 174h64v-30q0 -159 -129 -159q-40 0 -67.5 18t-33.5 56q-49 -74 -164 -74q-62 0 -100.5 31.5t-38.5 95.5q0 54 31 85.5t75 43.5t88 21.5t75 30.5t31 60q0 76 -107 76q-25 0 -53 -8.5t-40 -24.5q7 1 13 1q20 0 34 -10q19 -13 19 -43q0 -59 -70 -59q-32 0 -52 21.5 t-20 52.5q0 36 19.5 62t52 38.5t64 18t65.5 5.5q97 0 145 -39.5t48 -105.5v-245q0 -33 24 -33q27 0 27 76v38zM323 182v65l-106 -48q-19 -8 -29.5 -15t-20.5 -23t-10 -38q0 -63 60 -63q49 0 77.5 35.5t28.5 86.5zM396 683h43q-30 -126 -117 -126q-34 0 -88 24q-52 24 -76 24 q-16 0 -27.5 -15t-16.5 -32h-40q7 52 37.5 88.5t80.5 36.5q29 0 83 -24q54 -25 65 -25q23 0 34 11.5t22 37.5z" />
<glyph unicode="&#xe4;" horiz-adv-x="556" d="M492 174h64v-30q0 -159 -129 -159q-40 0 -67.5 18t-33.5 56q-49 -74 -164 -74q-62 0 -100.5 31.5t-38.5 95.5q0 54 31 85.5t75 43.5t88 21.5t75 30.5t31 60q0 76 -107 76q-25 0 -53 -8.5t-40 -24.5q7 1 13 1q20 0 34 -10q19 -13 19 -43q0 -59 -70 -59q-32 0 -52 21.5 t-20 52.5q0 36 19.5 62t52 38.5t64 18t65.5 5.5q97 0 145 -39.5t48 -105.5v-245q0 -33 24 -33q27 0 27 76v38zM323 182v65l-106 -48q-19 -8 -29.5 -15t-20.5 -23t-10 -38q0 -63 60 -63q49 0 77.5 35.5t28.5 86.5zM296 611q0 26 18.5 45.5t46.5 19.5t46.5 -19.5t18.5 -45.5 t-18.5 -45.5t-46.5 -19.5t-46.5 19.5t-18.5 45.5zM86 611q0 26 18.5 45.5t46.5 19.5t46.5 -19.5t18.5 -45.5t-18.5 -45.5t-46.5 -19.5t-46.5 19.5t-18.5 45.5z" />
<glyph unicode="&#xe5;" horiz-adv-x="556" d="M492 174h64v-30q0 -159 -129 -159q-40 0 -67.5 18t-33.5 56q-49 -74 -164 -74q-62 0 -100.5 31.5t-38.5 95.5q0 54 31 85.5t75 43.5t88 21.5t75 30.5t31 60q0 76 -107 76q-25 0 -53 -8.5t-40 -24.5q7 1 13 1q20 0 34 -10q19 -13 19 -43q0 -59 -70 -59q-32 0 -52 21.5 t-20 52.5q0 36 19.5 62t52 38.5t64 18t65.5 5.5q97 0 145 -39.5t48 -105.5v-245q0 -33 24 -33q27 0 27 76v38zM323 182v65l-106 -48q-19 -8 -29.5 -15t-20.5 -23t-10 -38q0 -63 60 -63q49 0 77.5 35.5t28.5 86.5zM255 745q45 0 75.5 -30t30.5 -75t-30.5 -75.5t-75.5 -30.5 t-75.5 30.5t-30.5 75.5t30.5 75t75.5 30zM255 697q-25 0 -41 -16t-16 -41t16 -41.5t41 -16.5t41 16.5t16 41.5t-16 41t-41 16z" />
<glyph unicode="&#xe6;" d="M329 182v65l-106 -48q-19 -8 -29.5 -15t-20.5 -23t-10 -38q0 -63 60 -63q49 0 77.5 35.5t28.5 86.5zM435 288h186q1 54 -20 89.5t-70 35.5q-47 0 -70 -35.5t-26 -89.5zM755 222h-320v-14q0 -59 23 -101q27 -47 91 -47q101 0 121 106h83q-10 -85 -67 -133t-148 -48 q-64 0 -106 24.5t-79 80.5q-71 -105 -185 -105q-62 0 -100.5 31.5t-38.5 95.5q0 54 31 85.5t75 43.5t88 21.5t75 30.5t31 60q0 76 -107 76q-25 0 -53 -8.5t-40 -24.5q7 1 13 1q20 0 34 -10q19 -13 19 -43q0 -59 -70 -59q-32 0 -52 21.5t-20 52.5q0 36 19.5 62t52 38.5t64 18 t65.5 5.5q71 0 145 -52q59 52 139 52q77 0 130 -42.5t73 -100.5q15 -44 15 -90q0 -14 -1 -28z" />
<glyph unicode="&#xe7;" horiz-adv-x="500" d="M392 192h78q-14 -207 -215 -207l-20 -43q22 5 39 5q83 0 83 -79q0 -41 -43 -60.5t-89 -19.5q-55 0 -95 18l16 37q30 -14 60 -14q57 0 57 41q0 17 -12.5 26.5t-30.5 9.5q-15 0 -32 -4l-9 8l37 78q-96 10 -146 73t-50 174q0 108 73 178t174 70q87 0 146.5 -42t59.5 -105 q0 -34 -20.5 -58.5t-51.5 -24.5q-30 0 -54 15.5t-24 44.5q0 61 59 65q-30 39 -95 39q-49 0 -80.5 -29t-42 -65.5t-10.5 -79.5q0 -70 29.5 -122t99.5 -52q44 0 74 34t35 89z" />
<glyph unicode="&#xe8;" horiz-adv-x="500" d="M477 222h-320v-14q0 -59 23 -101q27 -47 91 -47q101 0 121 106h83q-21 -181 -215 -181q-116 0 -176.5 63.5t-60.5 185.5q0 110 64.5 179.5t167.5 69.5q59 0 105 -24.5t72 -63.5t38 -84q8 -33 8 -66q0 -12 -1 -23zM157 288h186q1 54 -20 89.5t-70 35.5q-47 0 -70 -35.5 t-26 -89.5zM340 537h-59l-146 91q-19 12 -26.5 22t-7.5 31q0 16 14 28.5t30 12.5q12 0 23 -4t23 -14t17.5 -16t18.5 -21.5t16 -18.5z" />
<glyph unicode="&#xe9;" horiz-adv-x="500" d="M477 222h-320v-14q0 -59 23 -101q27 -47 91 -47q101 0 121 106h83q-21 -181 -215 -181q-116 0 -176.5 63.5t-60.5 185.5q0 110 64.5 179.5t167.5 69.5q59 0 105 -24.5t72 -63.5t38 -84q8 -33 8 -66q0 -12 -1 -23zM157 288h186q1 54 -20 89.5t-70 35.5q-47 0 -70 -35.5 t-26 -89.5zM238 537h-59l97 111q3 3 16 18.5t18.5 21.5t17.5 16t23 14t23 4q16 0 30 -12.5t14 -28.5q0 -21 -7.5 -31t-26.5 -22z" />
<glyph unicode="&#xea;" horiz-adv-x="500" d="M477 222h-320v-14q0 -59 23 -101q27 -47 91 -47q101 0 121 106h83q-21 -181 -215 -181q-116 0 -176.5 63.5t-60.5 185.5q0 110 64.5 179.5t167.5 69.5q59 0 105 -24.5t72 -63.5t38 -84q8 -33 8 -66q0 -12 -1 -23zM157 288h186q1 54 -20 89.5t-70 35.5q-47 0 -70 -35.5 t-26 -89.5zM213 713h93l122 -176h-56l-112 98l-112 -98h-56z" />
<glyph unicode="&#xeb;" horiz-adv-x="500" d="M477 222h-320v-14q0 -59 23 -101q27 -47 91 -47q101 0 121 106h83q-21 -181 -215 -181q-116 0 -176.5 63.5t-60.5 185.5q0 110 64.5 179.5t167.5 69.5q59 0 105 -24.5t72 -63.5t38 -84q8 -33 8 -66q0 -12 -1 -23zM157 288h186q1 54 -20 89.5t-70 35.5q-47 0 -70 -35.5 t-26 -89.5zM300 611q0 26 18.5 45.5t46.5 19.5t46.5 -19.5t18.5 -45.5t-18.5 -45.5t-46.5 -19.5t-46.5 19.5t-18.5 45.5zM90 611q0 26 18.5 45.5t46.5 19.5t46.5 -19.5t18.5 -45.5t-18.5 -45.5t-46.5 -19.5t-46.5 19.5t-18.5 45.5z" />
<glyph unicode="&#xec;" horiz-adv-x="333" d="M319 0h-293v66h46q21 0 30.5 9t9.5 31v256q0 22 -9.5 31t-30.5 9h-46v66h204v-362q0 -22 9.5 -31t30.5 -9h49v-66zM233 537h-59l-146 91q-19 12 -26.5 22t-7.5 31q0 16 14 28.5t30 12.5q12 0 23 -4t23 -14t17.5 -16t18.5 -21.5t16 -18.5z" />
<glyph unicode="&#xed;" horiz-adv-x="333" d="M319 0h-293v66h46q21 0 30.5 9t9.5 31v256q0 22 -9.5 31t-30.5 9h-46v66h204v-362q0 -22 9.5 -31t30.5 -9h49v-66zM131 537h-59l97 111q3 3 16 18.5t18.5 21.5t17.5 16t23 14t23 4q16 0 30 -12.5t14 -28.5q0 -21 -7.5 -31t-26.5 -22z" />
<glyph unicode="&#xee;" horiz-adv-x="333" d="M319 0h-293v66h46q21 0 30.5 9t9.5 31v256q0 22 -9.5 31t-30.5 9h-46v66h204v-362q0 -22 9.5 -31t30.5 -9h49v-66zM106 713h93l122 -176h-56l-112 98l-112 -98h-56z" />
<glyph unicode="&#xef;" horiz-adv-x="333" d="M319 0h-293v66h46q21 0 30.5 9t9.5 31v256q0 22 -9.5 31t-30.5 9h-46v66h204v-362q0 -22 9.5 -31t30.5 -9h49v-66zM193 611q0 26 18.5 45.5t46.5 19.5t46.5 -19.5t18.5 -45.5t-18.5 -45.5t-46.5 -19.5t-46.5 19.5t-18.5 45.5zM-17 611q0 26 18.5 45.5t46.5 19.5 t46.5 -19.5t18.5 -45.5t-18.5 -45.5t-46.5 -19.5t-46.5 19.5t-18.5 45.5z" />
<glyph unicode="&#xf0;" horiz-adv-x="556" d="M278 417q-123 0 -123 -183t123 -183t123 183t-123 183zM109 540l91 42q-38 25 -91 54l60 27q59 -24 99 -50l113 51l42 -42l-99 -45q95 -68 153 -157t58 -186q0 -117 -71 -183t-186 -66t-186 66t-71 183t71 183t186 66q11 0 36 -1q-29 36 -62 62l-101 -46z" />
<glyph unicode="&#xf1;" horiz-adv-x="667" d="M234 468v-87h2q67 102 174 102q67 0 104.5 -40.5t37.5 -120.5v-216q0 -22 12.5 -31t47.5 -9h36v-66h-292v66h24q31 0 42.5 9t11.5 31v208q0 52 -23.5 71.5t-64.5 19.5q-38 0 -75 -34.5t-37 -80.5v-184q0 -22 9.5 -31t30.5 -9h39v-66h-294v66h57q21 0 30.5 9t9.5 31v242 q0 32 -12.5 43t-51.5 11h-33v66h215zM455 683h43q-30 -126 -117 -126q-34 0 -88 24q-52 24 -76 24q-16 0 -27.5 -15t-16.5 -32h-40q7 52 37.5 88.5t80.5 36.5q29 0 83 -24q54 -25 65 -25q23 0 34 11.5t22 37.5z" />
<glyph unicode="&#xf2;" horiz-adv-x="556" d="M155 234q0 -183 123 -183t123 183t-123 183t-123 -183zM21 234q0 117 71 183t186 66t186 -66t71 -183t-71 -183t-186 -66t-186 66t-71 183zM359 537h-59l-146 91q-19 12 -26.5 22t-7.5 31q0 16 14 28.5t30 12.5q12 0 23 -4t23 -14t17.5 -16t18.5 -21.5t16 -18.5z" />
<glyph unicode="&#xf3;" horiz-adv-x="556" d="M155 234q0 -183 123 -183t123 183t-123 183t-123 -183zM21 234q0 117 71 183t186 66t186 -66t71 -183t-71 -183t-186 -66t-186 66t-71 183zM257 537h-59l97 111q3 3 16 18.5t18.5 21.5t17.5 16t23 14t23 4q16 0 30 -12.5t14 -28.5q0 -21 -7.5 -31t-26.5 -22z" />
<glyph unicode="&#xf4;" horiz-adv-x="556" d="M155 234q0 -183 123 -183t123 183t-123 183t-123 -183zM21 234q0 117 71 183t186 66t186 -66t71 -183t-71 -183t-186 -66t-186 66t-71 183zM232 713h93l122 -176h-56l-112 98l-112 -98h-56z" />
<glyph unicode="&#xf5;" horiz-adv-x="556" d="M155 234q0 -183 123 -183t123 183t-123 183t-123 -183zM21 234q0 117 71 183t186 66t186 -66t71 -183t-71 -183t-186 -66t-186 66t-71 183zM419 683h43q-30 -126 -117 -126q-34 0 -88 24q-52 24 -76 24q-16 0 -27.5 -15t-16.5 -32h-40q7 52 37.5 88.5t80.5 36.5 q29 0 83 -24q54 -25 65 -25q23 0 34 11.5t22 37.5z" />
<glyph unicode="&#xf6;" horiz-adv-x="556" d="M155 234q0 -183 123 -183t123 183t-123 183t-123 -183zM21 234q0 117 71 183t186 66t186 -66t71 -183t-71 -183t-186 -66t-186 66t-71 183zM319 611q0 26 18.5 45.5t46.5 19.5t46.5 -19.5t18.5 -45.5t-18.5 -45.5t-46.5 -19.5t-46.5 19.5t-18.5 45.5zM109 611 q0 26 18.5 45.5t46.5 19.5t46.5 -19.5t18.5 -45.5t-18.5 -45.5t-46.5 -19.5t-46.5 19.5t-18.5 45.5z" />
<glyph unicode="&#xf7;" horiz-adv-x="600" d="M534 193h-468v82h468v-82zM229 425q0 29 21 50.5t50 21.5q28 0 49.5 -22t21.5 -50q0 -26 -21.5 -48t-48.5 -22q-29 0 -50.5 21t-21.5 49zM229 43q0 28 21 49t50 21q28 0 49.5 -21t21.5 -49q0 -27 -21.5 -49.5t-48.5 -22.5q-29 0 -50.5 21.5t-21.5 50.5z" />
<glyph unicode="&#xf8;" horiz-adv-x="556" d="M162 161l209 208q-31 48 -93 48q-123 0 -123 -183q0 -42 7 -73zM57 -27l-42 42l58 57q-52 63 -52 162q0 117 71 183t186 66q98 0 161 -46l71 70l42 -42l-69 -69q52 -65 52 -162q0 -117 -71 -183t-186 -66q-98 0 -162 47zM394 308l-209 -208q31 -49 93 -49q123 0 123 183 q0 43 -7 74z" />
<glyph unicode="&#xf9;" horiz-adv-x="667" d="M647 0h-215v79h-2q-53 -94 -169 -94q-71 0 -109 35.5t-38 104.5v237q0 22 -9.5 31t-30.5 9h-51v66h209v-332q0 -32 20.5 -52.5t56.5 -20.5q58 0 90.5 42.5t32.5 86.5v170q0 40 -49 40h-54v66h221v-362q0 -22 12 -31t45 -9h40v-66zM391 537h-59l-146 91q-19 12 -26.5 22 t-7.5 31q0 16 14 28.5t30 12.5q12 0 23 -4t23 -14t17.5 -16t18.5 -21.5t16 -18.5z" />
<glyph unicode="&#xfa;" horiz-adv-x="667" d="M647 0h-215v79h-2q-53 -94 -169 -94q-71 0 -109 35.5t-38 104.5v237q0 22 -9.5 31t-30.5 9h-51v66h209v-332q0 -32 20.5 -52.5t56.5 -20.5q58 0 90.5 42.5t32.5 86.5v170q0 40 -49 40h-54v66h221v-362q0 -22 12 -31t45 -9h40v-66zM289 537h-59l97 111q3 3 16 18.5 t18.5 21.5t17.5 16t23 14t23 4q16 0 30 -12.5t14 -28.5q0 -21 -7.5 -31t-26.5 -22z" />
<glyph unicode="&#xfb;" horiz-adv-x="667" d="M647 0h-215v79h-2q-53 -94 -169 -94q-71 0 -109 35.5t-38 104.5v237q0 22 -9.5 31t-30.5 9h-51v66h209v-332q0 -32 20.5 -52.5t56.5 -20.5q58 0 90.5 42.5t32.5 86.5v170q0 40 -49 40h-54v66h221v-362q0 -22 12 -31t45 -9h40v-66zM264 713h93l122 -176h-56l-112 98 l-112 -98h-56z" />
<glyph unicode="&#xfc;" horiz-adv-x="667" d="M647 0h-215v79h-2q-53 -94 -169 -94q-71 0 -109 35.5t-38 104.5v237q0 22 -9.5 31t-30.5 9h-51v66h209v-332q0 -32 20.5 -52.5t56.5 -20.5q58 0 90.5 42.5t32.5 86.5v170q0 40 -49 40h-54v66h221v-362q0 -22 12 -31t45 -9h40v-66zM351 611q0 26 18.5 45.5t46.5 19.5 t46.5 -19.5t18.5 -45.5t-18.5 -45.5t-46.5 -19.5t-46.5 19.5t-18.5 45.5zM141 611q0 26 18.5 45.5t46.5 19.5t46.5 -19.5t18.5 -45.5t-18.5 -45.5t-46.5 -19.5t-46.5 19.5t-18.5 45.5z" />
<glyph unicode="&#xfd;" horiz-adv-x="611" d="M17 402v66h289v-66h-43q-29 0 -29 -22q0 -6 9 -28l90 -212h2l83 203q9 22 9 35q0 10 -9.5 17t-22.5 7h-43v66h241v-66q-63 0 -82 -45l-162 -385q-42 -100 -86.5 -142t-113.5 -42q-55 0 -94 32t-39 89q0 38 20.5 63t56.5 25q28 0 48.5 -18t20.5 -45q0 -23 -14.5 -40 t-34.5 -17q-4 0 -13 0.5t-13 0.5q14 -24 49 -24q75 0 108 73l33 73l-169 363q-18 39 -91 39zM284 537h-59l97 111q3 3 16 18.5t18.5 21.5t17.5 16t23 14t23 4q16 0 30 -12.5t14 -28.5q0 -21 -7.5 -31t-26.5 -22z" />
<glyph unicode="&#xfe;" horiz-adv-x="611" d="M198 663v-277h2q57 97 157 97q97 0 147.5 -73.5t50.5 -175.5t-50.5 -175.5t-147.5 -73.5q-54 0 -95 26.5t-60 59.5h-3v-173q0 -23 8.5 -33.5t31.5 -10.5h63v-66h-317v66h55q23 0 31.5 10.5t8.5 33.5v655q0 23 -8.5 33.5t-31.5 10.5h-52v66h210zM318 405q-52 0 -84.5 -44 t-32.5 -127t32.5 -127t84.5 -44q48 0 75.5 50t27.5 121q0 77 -27 124t-76 47z" />
<glyph unicode="&#xff;" horiz-adv-x="611" d="M17 402v66h289v-66h-43q-29 0 -29 -22q0 -6 9 -28l90 -212h2l83 203q9 22 9 35q0 10 -9.5 17t-22.5 7h-43v66h241v-66q-63 0 -82 -45l-162 -385q-42 -100 -86.5 -142t-113.5 -42q-55 0 -94 32t-39 89q0 38 20.5 63t56.5 25q28 0 48.5 -18t20.5 -45q0 -23 -14.5 -40 t-34.5 -17q-4 0 -13 0.5t-13 0.5q14 -24 49 -24q75 0 108 73l33 73l-169 363q-18 39 -91 39zM346 611q0 26 18.5 45.5t46.5 19.5t46.5 -19.5t18.5 -45.5t-18.5 -45.5t-46.5 -19.5t-46.5 19.5t-18.5 45.5zM136 611q0 26 18.5 45.5t46.5 19.5t46.5 -19.5t18.5 -45.5 t-18.5 -45.5t-46.5 -19.5t-46.5 19.5t-18.5 45.5z" />
<glyph unicode="&#x152;" horiz-adv-x="1000" d="M447 175v313q0 57 -17 82t-72 25q-83 0 -128 -66.5t-45 -198.5t45 -197t128 -65q55 0 72 25t17 82zM957 663v-258h-74q-1 105 -32 144.5t-105 39.5h-167v-208h63q37 0 50 26t13 72v28h74v-334h-74v36q0 46 -13 72t-50 26h-63v-233h136q99 0 131 40t37 165h74v-279h-475 q-22 0 -65 -5t-65 -5q-148 0 -236 93t-88 248q0 152 93.5 247t230.5 95q20 0 65 -5t65 -5h475z" />
<glyph unicode="&#x153;" horiz-adv-x="889" d="M531 288h200q2 125 -97 125q-52 0 -76 -35.5t-27 -89.5zM865 222h-334v-15q0 -34 7 -62q9 -34 38 -59.5t76 -25.5q58 0 88 26.5t40 79.5h83q-10 -85 -67 -133t-148 -48q-113 0 -172 67q-67 -67 -186 -67q-115 0 -186 66t-71 183t71 183t186 66q123 0 187 -64 q67 64 156 64q60 0 108 -24.5t75.5 -63.5t39.5 -84q10 -34 10 -68q0 -10 -1 -21zM167 234q0 -183 123 -183t123 183t-123 183t-123 -183z" />
<glyph unicode="&#x178;" d="M24 663h354v-74h-72q-24 0 -24 -23q0 -12 9 -24l114 -168l124 168q9 12 9 24q0 23 -24 23h-74v74h317v-74h-17q-54 0 -77 -33l-209 -284v-157q0 -41 40 -41h85v-74h-389v74h83q23 0 32 8t9 28v168l-197 276q-24 35 -77 35h-16v74zM439 785q0 26 18.5 45.5t46.5 19.5 t46.5 -19.5t18.5 -45.5t-18.5 -45.5t-46.5 -19.5t-46.5 19.5t-18.5 45.5zM229 785q0 26 18.5 45.5t46.5 19.5t46.5 -19.5t18.5 -45.5t-18.5 -45.5t-46.5 -19.5t-46.5 19.5t-18.5 45.5z" />
<glyph unicode="&#x2c6;" horiz-adv-x="333" d="M120 713h93l122 -176h-56l-112 98l-112 -98h-56z" />
<glyph unicode="&#x2dc;" horiz-adv-x="333" d="M307 683h43q-30 -126 -117 -126q-34 0 -88 24q-52 24 -76 24q-16 0 -27.5 -15t-16.5 -32h-40q7 52 37.5 88.5t80.5 36.5q29 0 83 -24q54 -25 65 -25q23 0 34 11.5t22 37.5z" />
<glyph unicode="&#x2000;" horiz-adv-x="459" />
<glyph unicode="&#x2001;" horiz-adv-x="919" />
<glyph unicode="&#x2002;" horiz-adv-x="459" />
<glyph unicode="&#x2003;" horiz-adv-x="919" />
<glyph unicode="&#x2004;" horiz-adv-x="306" />
<glyph unicode="&#x2005;" horiz-adv-x="229" />
<glyph unicode="&#x2006;" horiz-adv-x="153" />
<glyph unicode="&#x2007;" horiz-adv-x="153" />
<glyph unicode="&#x2008;" horiz-adv-x="114" />
<glyph unicode="&#x2009;" horiz-adv-x="183" />
<glyph unicode="&#x200a;" horiz-adv-x="51" />
<glyph unicode="&#x2010;" horiz-adv-x="333" d="M296 182h-259v104h259v-104z" />
<glyph unicode="&#x2011;" horiz-adv-x="333" d="M296 182h-259v104h259v-104z" />
<glyph unicode="&#x2013;" horiz-adv-x="500" d="M500 194h-500v80h500v-80z" />
<glyph unicode="&#x2014;" horiz-adv-x="1000" d="M1000 194h-1000v80h1000v-80z" />
<glyph unicode="&#x2018;" horiz-adv-x="222" d="M188 683v-42q-102 -29 -99 -112h2q8 16 46 16q24 0 42 -17.5t18 -44.5q0 -31 -21.5 -52.5t-52.5 -21.5q-42 0 -70 33.5t-28 77.5q0 65 47.5 108t115.5 55z" />
<glyph unicode="&#x2019;" horiz-adv-x="222" d="M34 409v42q102 29 99 112h-2q-8 -16 -46 -16q-24 0 -42 17.5t-18 44.5q0 31 21.5 52.5t52.5 21.5q42 0 70 -33.5t28 -77.5q0 -65 -47.5 -108t-115.5 -55z" />
<glyph unicode="&#x201a;" horiz-adv-x="222" d="M34 -141v42q102 29 99 112h-2q-8 -16 -46 -16q-24 0 -42 17.5t-18 44.5q0 31 21.5 52.5t52.5 21.5q42 0 70 -33.5t28 -77.5q0 -65 -47.5 -108t-115.5 -55z" />
<glyph unicode="&#x201c;" horiz-adv-x="444" d="M410 683v-42q-102 -29 -99 -112h2q8 16 46 16q24 0 42 -17.5t18 -44.5q0 -31 -21.5 -52.5t-52.5 -21.5q-42 0 -70 33.5t-28 77.5q0 65 47.5 108t115.5 55zM188 683v-42q-102 -29 -99 -112h2q8 16 46 16q24 0 42 -17.5t18 -44.5q0 -31 -21.5 -52.5t-52.5 -21.5 q-42 0 -70 33.5t-28 77.5q0 65 47.5 108t115.5 55z" />
<glyph unicode="&#x201d;" horiz-adv-x="444" d="M34 409v42q102 29 99 112h-2q-8 -16 -46 -16q-24 0 -42 17.5t-18 44.5q0 31 21.5 52.5t52.5 21.5q42 0 70 -33.5t28 -77.5q0 -65 -47.5 -108t-115.5 -55zM256 409v42q102 29 99 112h-2q-8 -16 -46 -16q-24 0 -42 17.5t-18 44.5q0 31 21.5 52.5t52.5 21.5q42 0 70 -33.5 t28 -77.5q0 -65 -47.5 -108t-115.5 -55z" />
<glyph unicode="&#x201e;" horiz-adv-x="444" d="M34 -141v42q102 29 99 112h-2q-8 -16 -46 -16q-24 0 -42 17.5t-18 44.5q0 31 21.5 52.5t52.5 21.5q42 0 70 -33.5t28 -77.5q0 -65 -47.5 -108t-115.5 -55zM256 -141v42q102 29 99 112h-2q-8 -16 -46 -16q-24 0 -42 17.5t-18 44.5q0 31 21.5 52.5t52.5 21.5q42 0 70 -33.5 t28 -77.5q0 -65 -47.5 -108t-115.5 -55z" />
<glyph unicode="&#x2022;" horiz-adv-x="500" d="M250 498q69 0 117.5 -48t48.5 -118t-48.5 -118t-117.5 -48t-117.5 48t-48.5 118t48.5 118t117.5 48z" />
<glyph unicode="&#x2026;" horiz-adv-x="1000" d="M93 59q0 31 21.5 52.5t52.5 21.5t52.5 -21.5t21.5 -52.5t-21.5 -52.5t-52.5 -21.5t-52.5 21.5t-21.5 52.5zM426 59q0 31 21 52.5t53 21.5t53 -21.5t21 -52.5t-21 -52.5t-53 -21.5t-53 21.5t-21 52.5zM759 59q0 31 21.5 52.5t52.5 21.5t52.5 -21.5t21.5 -52.5t-21.5 -52.5 t-52.5 -21.5t-52.5 21.5t-21.5 52.5z" />
<glyph unicode="&#x202f;" horiz-adv-x="183" />
<glyph unicode="&#x2039;" horiz-adv-x="278" d="M151 399h69q-2 -9 -16 -48l-28 -75q-13 -35 -13 -40q0 -7 27.5 -82t29.5 -84h-69q-5 10 -29.5 47t-44 70.5t-19.5 44.5q0 12 19.5 46t44 72t29.5 49z" />
<glyph unicode="&#x203a;" horiz-adv-x="278" d="M127 70h-69q2 9 16 48l28 74q13 36 13 41q0 7 -27.5 82t-29.5 84h69q5 -10 29.5 -47t44 -70.5t19.5 -44.5q0 -12 -19.5 -46t-44 -72t-29.5 -49z" />
<glyph unicode="&#x205f;" horiz-adv-x="229" />
<glyph unicode="&#x20ac;" horiz-adv-x="611" d="M568 0h-64l-14 48q-51 -63 -151 -63t-165.5 64t-84.5 174h-77l21 60h49v28v22h-70l21 60h57q21 101 88.5 164t164.5 63q96 0 147 -63l14 54h64v-178h-67q-18 112 -134 112q-104 0 -129 -152h249l-22 -60h-232q-1 -10 -1 -30v-20h216l-21 -60h-190q24 -163 130 -163 q56 0 92 31.5t42 80.5h67v-172z" />
<glyph unicode="&#x2122;" horiz-adv-x="990" d="M246 639v-309q0 -31 6.5 -38t44.5 -10v-23h-194v23q37 3 43.5 10t6.5 38v309h-46q-50 0 -65 -64h-23v88h362v-88h-23q-15 64 -66 64h-46zM663 258l-140 292h-2v-199q0 -40 9 -53.5t43 -15.5v-23h-133v23q34 2 43 15.5t9 53.5v237q-23 52 -70 52v23h139l142 -289l151 289 h118v-23q-33 -1 -43.5 -11.5t-10.5 -36.5v-262q0 -31 6.5 -38t44.5 -10v-23h-194v23q37 3 43.5 9.5t6.5 38.5v222h-2l-147 -294h-13z" />
</font>
</defs>
</svg>
